Rubik-BoldItalic.ufo
<glyph name="exclam" format="1">
  <advance width="303"/>
  <unicode hex="0021"/>
  <outline>
    <contour>
      <point x="322" y="673" type="line" name="hr00"/>
      <point x="325" y="688"/>
      <point x="315" y="700"/>
      <point x="300" y="700" type="curve" smooth="yes"/>
      <point x="174" y="700" type="line" smooth="yes"/>
      <point x="159" y="700"/>
      <point x="145" y="688"/>
      <point x="142" y="673" type="curve" smooth="yes"/>
      <point x="50" y="242" type="line" smooth="yes"/>
      <point x="47" y="227"/>
      <point x="56" y="215"/>
      <point x="71" y="215" type="curve" smooth="yes"/>
      <point x="197" y="215" type="line" smooth="yes"/>
      <point x="212" y="215"/>
      <point x="227" y="227"/>
      <point x="230" y="242" type="curve" smooth="yes"/>
    </contour>
    <contour>
      <point x="206" y="128" type="line" smooth="yes"/>
      <point x="209" y="143"/>
      <point x="199" y="155"/>
      <point x="184" y="155" type="curve" smooth="yes"/>
      <point x="58" y="155" type="line" smooth="yes"/>
      <point x="43" y="155"/>
      <point x="29" y="143"/>
      <point x="26" y="128" type="curve" smooth="yes"/>
      <point x="4" y="27" type="line"/>
      <point x="1" y="12"/>
      <point x="11" y="0"/>
      <point x="26" y="0" type="curve" smooth="yes"/>
      <point x="152" y="0" type="line"/>
      <point x="167" y="0"/>
      <point x="181" y="12"/>
      <point x="184" y="27" type="curve" smooth="yes"/>
    </contour>
  </outline>
</glyph>
<glyph name="quotesingle" format="1">
  <advance width="258"/>
  <unicode hex="0027"/>
  <outline>
    <contour>
      <point x="296" y="674" type="line" name="hr00" smooth="yes"/>
      <point x="302" y="694"/>
      <point x="297" y="710"/>
      <point x="276" y="710" type="curve" smooth="yes"/>
      <point x="152" y="710" type="line"/>
      <point x="131" y="710"/>
      <point x="120" y="694"/>
      <point x="118" y="674" type="curve" smooth="yes"/>
      <point x="96" y="466" type="line" smooth="yes"/>
      <point x="94" y="448"/>
      <point x="104" y="438"/>
      <point x="118" y="438" type="curve" smooth="yes"/>
      <point x="196" y="438" type="line" smooth="yes"/>
      <point x="210" y="438"/>
      <point x="224" y="448"/>
      <point x="230" y="466" type="curve" smooth="yes"/>
    </contour>
  </outline>
</glyph>
<glyph name="asterisk" format="1">
  <advance width="451"/>
  <unicode hex="002A"/>
  <outline>
    <contour>
      <point x="380" y="700" type="line" name="hr00" smooth="yes"/>
      <point x="386" y="713"/>
      <point x="384" y="730"/>
      <point x="366" y="730" type="curve" smooth="yes"/>
      <point x="266" y="730" type="line" smooth="yes"/>
      <point x="250" y="730"/>
      <point x="237" y="716"/>
      <point x="238" y="700" type="curve" smooth="yes"/>
      <point x="243" y="620" type="line"/>
      <point x="183" y="666" type="line" smooth="yes"/>
      <point x="172" y="675"/>
      <point x="153" y="668"/>
      <point x="146" y="655" type="curve" smooth="yes"/>
      <point x="95" y="560" type="line"/>
      <point x="86" y="546"/>
      <point x="96" y="531"/>
      <point x="110" y="531" type="curve"/>
      <point x="193" y="526" type="line"/>
      <point x="116" y="474" type="line" smooth="yes"/>
      <point x="96" y="461"/>
      <point x="97" y="446"/>
      <point x="108" y="437" type="curve" smooth="yes"/>
      <point x="176" y="378" type="line" smooth="yes"/>
      <point x="184" y="371"/>
      <point x="201" y="369"/>
      <point x="210" y="385" type="curve" smooth="yes"/>
      <point x="260" y="468" type="line"/>
      <point x="273" y="390" type="line" smooth="yes"/>
      <point x="276" y="373"/>
      <point x="294" y="371"/>
      <point x="306" y="378" type="curve" smooth="yes"/>
      <point x="398" y="437" type="line" smooth="yes"/>
      <point x="413" y="446"/>
      <point x="416" y="464"/>
      <point x="406" y="474" type="curve" smooth="yes"/>
      <point x="351" y="526" type="line"/>
      <point x="442" y="531" type="line" smooth="yes"/>
      <point x="456" y="532"/>
      <point x="467" y="542"/>
      <point x="465" y="560" type="curve" smooth="yes"/>
      <point x="454" y="655" type="line" smooth="yes"/>
      <point x="452" y="672"/>
      <point x="434" y="674"/>
      <point x="421" y="666" type="curve" smooth="yes"/>
      <point x="341" y="620" type="line"/>
    </contour>
  </outline>
</glyph>
<glyph name="comma" format="1">
  <advance width="289"/>
  <unicode hex="002C"/>
  <outline>
    <contour>
      <point x="-42" y="-51" type="line" name="hr00"/>
      <point x="-48" y="-63"/>
      <point x="-36" y="-75"/>
      <point x="-25" y="-75" type="curve" smooth="yes"/>
      <point x="50" y="-75" type="line" smooth="yes"/>
      <point x="76" y="-75"/>
      <point x="91" y="-56"/>
      <point x="99" y="-43" type="curve" smooth="yes"/>
      <point x="220" y="156" type="line" smooth="yes"/>
      <point x="227" y="168"/>
      <point x="222" y="185"/>
      <point x="205" y="185" type="curve" smooth="yes"/>
      <point x="82" y="185" type="line" smooth="yes"/>
      <point x="55" y="185"/>
      <point x="37" y="164"/>
      <point x="31" y="146" type="curve" smooth="yes"/>
    </contour>
  </outline>
</glyph>
<glyph name="slash" format="1">
  <advance width="595"/>
  <unicode hex="002F"/>
  <outline>
    <contour>
      <point x="-49" y="-53" type="line" name="hr00" smooth="yes"/>
      <point x="-57" y="-66"/>
      <point x="-52" y="-84"/>
      <point x="-35" y="-84" type="curve" smooth="yes"/>
      <point x="107" y="-84" type="line" smooth="yes"/>
      <point x="134" y="-84"/>
      <point x="149" y="-67"/>
      <point x="157" y="-54" type="curve" smooth="yes"/>
      <point x="666" y="755" type="line" smooth="yes"/>
      <point x="674" y="768"/>
      <point x="670" y="786"/>
      <point x="653" y="786" type="curve" smooth="yes"/>
      <point x="509" y="786" type="line" smooth="yes"/>
      <point x="484" y="786"/>
      <point x="467" y="770"/>
      <point x="458" y="756" type="curve" smooth="yes"/>
    </contour>
  </outline>
</glyph>
<glyph name="colon" format="1">
  <advance width="298"/>
  <unicode hex="003A"/>
  <outline>
    <contour>
      <point x="286" y="508" type="line" name="hr00" smooth="yes"/>
      <point x="289" y="523"/>
      <point x="280" y="535"/>
      <point x="265" y="535" type="curve" smooth="yes"/>
      <point x="134" y="535" type="line" smooth="yes"/>
      <point x="119" y="535"/>
      <point x="104" y="523"/>
      <point x="101" y="508" type="curve" smooth="yes"/>
      <point x="74" y="377" type="line" smooth="yes"/>
      <point x="71" y="362"/>
      <point x="80" y="350"/>
      <point x="95" y="350" type="curve" smooth="yes"/>
      <point x="226" y="350" type="line" smooth="yes"/>
      <point x="241" y="350"/>
      <point x="256" y="362"/>
      <point x="259" y="377" type="curve" smooth="yes"/>
    </contour>
    <contour>
      <point x="212" y="158" type="line" smooth="yes"/>
      <point x="215" y="173"/>
      <point x="206" y="185"/>
      <point x="191" y="185" type="curve" smooth="yes"/>
      <point x="60" y="185" type="line" smooth="yes"/>
      <point x="45" y="185"/>
      <point x="30" y="173"/>
      <point x="27" y="158" type="curve" smooth="yes"/>
      <point x="0" y="27" type="line" smooth="yes"/>
      <point x="-3" y="12"/>
      <point x="6" y="0"/>
      <point x="21" y="0" type="curve" smooth="yes"/>
      <point x="152" y="0" type="line" smooth="yes"/>
      <point x="167" y="0"/>
      <point x="182" y="12"/>
      <point x="185" y="27" type="curve" smooth="yes"/>
    </contour>
  </outline>
</glyph>
<glyph name="less" format="1">
  <advance width="527"/>
  <unicode hex="003C"/>
  <outline>
    <contour>
      <point x="35" y="329" type="line" smooth="yes"/>
      <point x="31" y="308"/>
      <point x="40" y="299"/>
      <point x="56" y="287" type="curve" smooth="yes"/>
      <point x="375" y="35" type="line" smooth="yes"/>
      <point x="389" y="24"/>
      <point x="407" y="28"/>
      <point x="411" y="48" type="curve" smooth="yes"/>
      <point x="440" y="180" type="line" smooth="yes"/>
      <point x="445" y="203"/>
      <point x="429" y="215"/>
      <point x="418" y="224" type="curve" smooth="yes"/>
      <point x="281" y="333" type="line"/>
      <point x="463" y="440" type="line" smooth="yes"/>
      <point x="478" y="449"/>
      <point x="499" y="461"/>
      <point x="504" y="484" type="curve" smooth="yes"/>
      <point x="539" y="649" type="line" smooth="yes"/>
      <point x="543" y="667"/>
      <point x="525" y="675"/>
      <point x="511" y="667" type="curve" smooth="yes"/>
      <point x="82" y="413" type="line" smooth="yes"/>
      <point x="62" y="401"/>
      <point x="49" y="392"/>
      <point x="44" y="371" type="curve" smooth="yes"/>
    </contour>
  </outline>
</glyph>
<glyph name="at" format="1">
  <advance width="875"/>
  <unicode hex="0040"/>
  <outline>
    <contour>
      <point x="810" y="234" type="curve" smooth="yes"/>
      <point x="820" y="270"/>
      <point x="832" y="322"/>
      <point x="836" y="356" type="curve" smooth="yes"/>
      <point x="859" y="532"/>
      <point x="772" y="679"/>
      <point x="499" y="679" type="curve" smooth="yes"/>
      <point x="227" y="679"/>
      <point x="110" y="522"/>
      <point x="62" y="356" type="curve" smooth="yes"/>
      <point x="52" y="322"/>
      <point x="31" y="222"/>
      <point x="26" y="185" type="curve" smooth="yes"/>
      <point x="6" y="16"/>
      <point x="125" y="-136"/>
      <point x="346" y="-136" type="curve" smooth="yes"/>
      <point x="550" y="-136"/>
      <point x="639" y="-63"/>
      <point x="703" y="-5" type="curve" smooth="yes"/>
      <point x="708" y="-1"/>
      <point x="712" y="4"/>
      <point x="714" y="10" type="curve" smooth="yes"/>
      <point x="718" y="27"/>
      <point x="708" y="38"/>
      <point x="693" y="38" type="curve" smooth="yes"/>
      <point x="605" y="38" type="line" smooth="yes"/>
      <point x="591" y="38"/>
      <point x="583" y="33"/>
      <point x="566" y="23" type="curve" smooth="yes"/>
      <point x="527" y="-1"/>
      <point x="488" y="-25"/>
      <point x="359" y="-25" type="curve" name="hr01" smooth="yes"/>
      <point x="195" y="-25"/>
      <point x="131" y="63"/>
      <point x="143" y="190" type="curve" smooth="yes"/>
      <point x="147" y="227"/>
      <point x="166" y="317"/>
      <point x="177" y="351" type="curve" smooth="yes"/>
      <point x="220" y="480"/>
      <point x="311" y="568"/>
      <point x="485" y="568" type="curve" smooth="yes"/>
      <point x="690" y="568"/>
      <point x="735" y="499"/>
      <point x="720" y="351" type="curve" smooth="yes"/>
      <point x="717" y="317"/>
      <point x="709" y="285"/>
      <point x="699" y="249" type="curve" smooth="yes"/>
      <point x="688" y="207"/>
      <point x="669" y="190"/>
      <point x="639" y="190" type="curve" smooth="yes"/>
      <point x="610" y="190"/>
      <point x="594" y="208"/>
      <point x="601" y="240" type="curve" smooth="yes"/>
      <point x="644" y="443" type="line" smooth="yes"/>
      <point x="647" y="458"/>
      <point x="637" y="470"/>
      <point x="622" y="470" type="curve" smooth="yes"/>
      <point x="560" y="470" type="line" smooth="yes"/>
      <point x="545" y="470"/>
      <point x="531" y="458"/>
      <point x="528" y="443" type="curve" smooth="yes"/>
      <point x="526" y="434" type="line"/>
      <point x="514" y="459"/>
      <point x="486" y="478"/>
      <point x="431" y="478" type="curve" smooth="yes"/>
      <point x="332" y="478"/>
      <point x="265" y="395"/>
      <point x="240" y="273" type="curve" smooth="yes"/>
      <point x="214" y="151"/>
      <point x="270" y="69"/>
      <point x="369" y="69" type="curve" smooth="yes"/>
      <point x="453" y="69"/>
      <point x="479" y="97"/>
      <point x="503" y="125" type="curve"/>
      <point x="517" y="103"/>
      <point x="558" y="79"/>
      <point x="625" y="79" type="curve" smooth="yes"/>
      <point x="721" y="79"/>
      <point x="783" y="133"/>
    </contour>
    <contour>
      <point x="355" y="273" type="curve" smooth="yes"/>
      <point x="368" y="338"/>
      <point x="407" y="367"/>
      <point x="443" y="367" type="curve" smooth="yes"/>
      <point x="482" y="367"/>
      <point x="505" y="338"/>
      <point x="492" y="273" type="curve"/>
      <point x="477" y="207"/>
      <point x="442" y="180"/>
      <point x="403" y="180" type="curve" smooth="yes"/>
      <point x="367" y="180"/>
      <point x="341" y="208"/>
    </contour>
  </outline>
</glyph>
<glyph name="C" format="1">
  <advance width="703"/>
  <unicode hex="0043"/>
  <outline>
    <contour>
      <point x="262" y="434" type="curve" name="hr00" smooth="yes"/>
      <point x="280" y="495"/>
      <point x="322" y="550"/>
      <point x="412" y="550" type="curve" smooth="yes"/>
      <point x="502" y="550"/>
      <point x="516" y="503"/>
      <point x="521" y="471" type="curve"/>
      <point x="523" y="450"/>
      <point x="526" y="442"/>
      <point x="548" y="442" type="curve" smooth="yes"/>
      <point x="679" y="442" type="line" smooth="yes"/>
      <point x="691" y="442"/>
      <point x="704" y="452"/>
      <point x="706" y="464" type="curve" smooth="yes"/>
      <point x="732" y="600"/>
      <point x="592" y="710"/>
      <point x="436" y="710" type="curve" smooth="yes"/>
      <point x="224" y="710"/>
      <point x="115" y="586"/>
      <point x="78" y="439" type="curve" smooth="yes"/>
      <point x="64" y="382"/>
      <point x="48" y="315"/>
      <point x="40" y="261" type="curve"/>
      <point x="16" y="114"/>
      <point x="131" y="-10"/>
      <point x="303" y="-10" type="curve" smooth="yes"/>
      <point x="499" y="-10"/>
      <point x="626" y="100"/>
      <point x="658" y="236" type="curve"/>
      <point x="660" y="248"/>
      <point x="652" y="258"/>
      <point x="640" y="258" type="curve" smooth="yes"/>
      <point x="509" y="258" type="line" smooth="yes"/>
      <point x="487" y="258"/>
      <point x="481" y="250"/>
      <point x="469" y="229" type="curve" smooth="yes"/>
      <point x="451" y="197"/>
      <point x="417" y="150"/>
      <point x="327" y="150" type="curve" smooth="yes"/>
      <point x="237" y="150"/>
      <point x="218" y="205"/>
      <point x="226" y="266" type="curve" smooth="yes"/>
      <point x="231" y="302"/>
      <point x="251" y="399"/>
    </contour>
  </outline>
</glyph>
<glyph name="E" format="1">
  <advance width="642"/>
  <unicode hex="0045"/>
  <outline>
    <contour>
      <point x="542" y="160" type="line" name="hr00" smooth="yes"/>
      <point x="557" y="160"/>
      <point x="566" y="148"/>
      <point x="563" y="133" type="curve" smooth="yes"/>
      <point x="540" y="27" type="line" smooth="yes"/>
      <point x="537" y="12"/>
      <point x="523" y="0"/>
      <point x="508" y="0" type="curve" smooth="yes"/>
      <point x="34" y="0" type="line" smooth="yes"/>
      <point x="19" y="0"/>
      <point x="9" y="12"/>
      <point x="12" y="27" type="curve" smooth="yes"/>
      <point x="150" y="673" type="line" smooth="yes"/>
      <point x="153" y="688"/>
      <point x="167" y="700"/>
      <point x="182" y="700" type="curve" smooth="yes"/>
      <point x="648" y="700" type="line" smooth="yes"/>
      <point x="663" y="700"/>
      <point x="673" y="688"/>
      <point x="670" y="673" type="curve" smooth="yes"/>
      <point x="647" y="567" type="line" smooth="yes"/>
      <point x="644" y="552"/>
      <point x="629" y="540"/>
      <point x="614" y="540" type="curve" smooth="yes"/>
      <point x="306" y="540" type="line"/>
      <point x="283" y="432" type="line"/>
      <point x="569" y="432" type="line" smooth="yes"/>
      <point x="584" y="432"/>
      <point x="594" y="420"/>
      <point x="591" y="405" type="curve" smooth="yes"/>
      <point x="568" y="299" type="line" smooth="yes"/>
      <point x="565" y="284"/>
      <point x="550" y="272"/>
      <point x="535" y="272" type="curve" smooth="yes"/>
      <point x="249" y="272" type="line"/>
      <point x="226" y="160" type="line"/>
    </contour>
  </outline>
</glyph>
<glyph name="R" format="1">
  <advance width="694"/>
  <unicode hex="0052"/>
  <outline>
    <contour>
      <point x="182" y="700" type="line" name="hr00" smooth="yes"/>
      <point x="167" y="700"/>
      <point x="153" y="688"/>
      <point x="150" y="673" type="curve" smooth="yes"/>
      <point x="12" y="27" type="line" smooth="yes"/>
      <point x="9" y="12"/>
      <point x="19" y="0"/>
      <point x="34" y="0" type="curve" smooth="yes"/>
      <point x="165" y="0" type="line" smooth="yes"/>
      <point x="180" y="0"/>
      <point x="194" y="12"/>
      <point x="197" y="27" type="curve" smooth="yes"/>
      <point x="243" y="241" type="line"/>
      <point x="345" y="241" type="line"/>
      <point x="410" y="27" type="line" smooth="yes"/>
      <point x="414" y="15"/>
      <point x="420" y="0"/>
      <point x="447" y="0" type="curve" smooth="yes"/>
      <point x="573" y="0" type="line" smooth="yes"/>
      <point x="585" y="0"/>
      <point x="597" y="10"/>
      <point x="599" y="22" type="curve" smooth="yes"/>
      <point x="600" y="27"/>
      <point x="600" y="29"/>
      <point x="599" y="33" type="curve" smooth="yes"/>
      <point x="525" y="271" type="line"/>
      <point x="609" y="306"/>
      <point x="665" y="362"/>
      <point x="686" y="461" type="curve" smooth="yes"/>
      <point x="719" y="617"/>
      <point x="598" y="700"/>
      <point x="443" y="700" type="curve" smooth="yes"/>
    </contour>
    <contour>
      <point x="307" y="545" type="line"/>
      <point x="420" y="545" type="line" smooth="yes"/>
      <point x="476" y="545"/>
      <point x="513" y="526"/>
      <point x="502" y="471" type="curve" smooth="yes"/>
      <point x="490" y="416"/>
      <point x="445" y="397"/>
      <point x="389" y="397" type="curve" smooth="yes"/>
      <point x="276" y="397" type="line"/>
    </contour>
  </outline>
</glyph>
<glyph name="S" format="1">
  <advance width="675"/>
  <unicode hex="0053"/>
  <outline>
    <contour>
      <point x="407" y="710" type="curve" smooth="yes"/>
      <point x="213" y="710"/>
      <point x="114" y="619"/>
      <point x="90" y="504" type="curve"/>
      <point x="65" y="390"/>
      <point x="112" y="315"/>
      <point x="242" y="286" type="curve" smooth="yes"/>
      <point x="382" y="255"/>
      <point x="447" y="243"/>
      <point x="439" y="203" type="curve" smooth="yes"/>
      <point x="430" y="163"/>
      <point x="373" y="150"/>
      <point x="303" y="150" type="curve" smooth="yes"/>
      <point x="223" y="150"/>
      <point x="207" y="194"/>
      <point x="197" y="205" type="curve" smooth="yes"/>
      <point x="189" y="214"/>
      <point x="180" y="219"/>
      <point x="162" y="219" type="curve" name="hr01" smooth="yes"/>
      <point x="31" y="219" type="line" smooth="yes"/>
      <point x="20" y="219"/>
      <point x="8" y="209"/>
      <point x="5" y="197" type="curve"/>
      <point x="-3" y="95"/>
      <point x="119" y="-10"/>
      <point x="279" y="-10" type="curve" smooth="yes"/>
      <point x="478" y="-10"/>
      <point x="595" y="63"/>
      <point x="624" y="198" type="curve" smooth="yes"/>
      <point x="650" y="323"/>
      <point x="590" y="387"/>
      <point x="451" y="417" type="curve" smooth="yes"/>
      <point x="310" y="447"/>
      <point x="266" y="459"/>
      <point x="275" y="499" type="curve" smooth="yes"/>
      <point x="283" y="539"/>
      <point x="333" y="550"/>
      <point x="383" y="550" type="curve" smooth="yes"/>
      <point x="453" y="550"/>
      <point x="469" y="515"/>
      <point x="476" y="507" type="curve" smooth="yes"/>
      <point x="486" y="496"/>
      <point x="494" y="491"/>
      <point x="513" y="491" type="curve" name="hr02" smooth="yes"/>
      <point x="644" y="491" type="line" smooth="yes"/>
      <point x="655" y="491"/>
      <point x="667" y="501"/>
      <point x="670" y="513" type="curve"/>
      <point x="676" y="600"/>
      <point x="567" y="710"/>
    </contour>
  </outline>
</glyph>
<glyph name="U" format="1">
  <advance width="735"/>
  <unicode hex="0055"/>
  <outline>
    <contour>
      <point x="597" y="700" type="line" name="hr00" smooth="yes"/>
      <point x="582" y="700"/>
      <point x="568" y="688"/>
      <point x="565" y="673" type="curve" smooth="yes"/>
      <point x="481" y="278" type="line" smooth="yes"/>
      <point x="464" y="198"/>
      <point x="413" y="150"/>
      <point x="334" y="150" type="curve" smooth="yes"/>
      <point x="255" y="150"/>
      <point x="226" y="198"/>
      <point x="243" y="278" type="curve" smooth="yes"/>
      <point x="327" y="673" type="line" smooth="yes"/>
      <point x="330" y="688"/>
      <point x="320" y="700"/>
      <point x="305" y="700" type="curve" smooth="yes"/>
      <point x="174" y="700" type="line" smooth="yes"/>
      <point x="159" y="700"/>
      <point x="145" y="688"/>
      <point x="142" y="673" type="curve" smooth="yes"/>
      <point x="57" y="274" type="line" smooth="yes"/>
      <point x="18" y="90"/>
      <point x="148" y="-10"/>
      <point x="310" y="-10" type="curve" smooth="yes"/>
      <point x="510" y="-10"/>
      <point x="626" y="90"/>
      <point x="665" y="274" type="curve" smooth="yes"/>
      <point x="750" y="673" type="line" smooth="yes"/>
      <point x="753" y="688"/>
      <point x="743" y="700"/>
      <point x="728" y="700" type="curve" smooth="yes"/>
    </contour>
  </outline>
</glyph>
<glyph name="Z" format="1">
  <advance width="669"/>
  <unicode hex="005A"/>
  <outline>
    <contour>
      <point x="268" y="160" type="line" name="hr00"/>
      <point x="658" y="539" type="line" smooth="yes"/>
      <point x="669" y="549"/>
      <point x="675" y="558"/>
      <point x="678" y="572" type="curve" smooth="yes"/>
      <point x="700" y="673" type="line" smooth="yes"/>
      <point x="703" y="688"/>
      <point x="693" y="700"/>
      <point x="678" y="700" type="curve" smooth="yes"/>
      <point x="162" y="700" type="line" smooth="yes"/>
      <point x="147" y="700"/>
      <point x="133" y="688"/>
      <point x="130" y="673" type="curve" smooth="yes"/>
      <point x="107" y="567" type="line"/>
      <point x="104" y="552"/>
      <point x="113" y="540"/>
      <point x="128" y="540" type="curve" smooth="yes"/>
      <point x="416" y="540" type="line"/>
      <point x="26" y="163" type="line" smooth="yes"/>
      <point x="19" y="156"/>
      <point x="8" y="147"/>
      <point x="4" y="128" type="curve"/>
      <point x="-18" y="27" type="line"/>
      <point x="-21" y="12"/>
      <point x="-11" y="0"/>
      <point x="4" y="0" type="curve" smooth="yes"/>
      <point x="540" y="0" type="line" smooth="yes"/>
      <point x="555" y="0"/>
      <point x="569" y="12"/>
      <point x="572" y="27" type="curve" smooth="yes"/>
      <point x="595" y="133" type="line" smooth="yes"/>
      <point x="598" y="148"/>
      <point x="589" y="160"/>
      <point x="574" y="160" type="curve" smooth="yes"/>
    </contour>
  </outline>
</glyph>
<glyph name="bracketright" format="1">
  <advance width="390"/>
  <unicode hex="005D"/>
  <outline>
    <contour>
      <point x="206" y="-159" type="line" name="hr00"/>
      <point x="221" y="-159"/>
      <point x="235" y="-147"/>
      <point x="238" y="-132" type="curve" smooth="yes"/>
      <point x="426" y="749" type="line" smooth="yes"/>
      <point x="429" y="764"/>
      <point x="419" y="776"/>
      <point x="404" y="776" type="curve" smooth="yes"/>
      <point x="156" y="776" type="line" smooth="yes"/>
      <point x="141" y="776"/>
      <point x="127" y="764"/>
      <point x="124" y="749" type="curve" smooth="yes"/>
      <point x="102" y="648" type="line" smooth="yes"/>
      <point x="99" y="633"/>
      <point x="108" y="621"/>
      <point x="123" y="621" type="curve" smooth="yes"/>
      <point x="218" y="621" type="line"/>
      <point x="86" y="-4" type="line"/>
      <point x="-9" y="-4" type="line" smooth="yes"/>
      <point x="-24" y="-4"/>
      <point x="-39" y="-16"/>
      <point x="-42" y="-31" type="curve" smooth="yes"/>
      <point x="-64" y="-132" type="line" smooth="yes"/>
      <point x="-67" y="-147"/>
      <point x="-57" y="-159"/>
      <point x="-42" y="-159" type="curve" smooth="yes"/>
    </contour>
  </outline>
</glyph>
<glyph name="h" format="1">
  <advance width="643"/>
  <unicode hex="0068"/>
  <outline>
    <contour>
      <point x="593" y="302" type="line" name="hr00" smooth="yes"/>
      <point x="626" y="459"/>
      <point x="523" y="530"/>
      <point x="414" y="530" type="curve" smooth="yes"/>
      <point x="352" y="530"/>
      <point x="303" y="498"/>
      <point x="275" y="470" type="curve"/>
      <point x="321" y="683" type="line" smooth="yes"/>
      <point x="324" y="698"/>
      <point x="314" y="710"/>
      <point x="299" y="710" type="curve" smooth="yes"/>
      <point x="173" y="710" type="line" smooth="yes"/>
      <point x="158" y="710"/>
      <point x="144" y="698"/>
      <point x="141" y="683" type="curve" smooth="yes"/>
      <point x="1" y="27" type="line" smooth="yes"/>
      <point x="-2" y="12"/>
      <point x="8" y="0"/>
      <point x="23" y="0" type="curve" smooth="yes"/>
      <point x="149" y="0" type="line" smooth="yes"/>
      <point x="164" y="0"/>
      <point x="178" y="12"/>
      <point x="181" y="27" type="curve" smooth="yes"/>
      <point x="235" y="280" type="line" smooth="yes"/>
      <point x="247" y="337"/>
      <point x="281" y="375"/>
      <point x="341" y="375" type="curve" smooth="yes"/>
      <point x="401" y="375"/>
      <point x="420" y="337"/>
      <point x="408" y="280" type="curve" smooth="yes"/>
      <point x="354" y="27" type="line" smooth="yes"/>
      <point x="351" y="12"/>
      <point x="361" y="0"/>
      <point x="376" y="0" type="curve" smooth="yes"/>
      <point x="502" y="0" type="line" smooth="yes"/>
      <point x="517" y="0"/>
      <point x="531" y="12"/>
      <point x="534" y="27" type="curve" smooth="yes"/>
    </contour>
  </outline>
</glyph>
<glyph name="i" format="1">
  <advance width="296"/>
  <unicode hex="0069"/>
  <outline>
    <contour>
      <point x="280" y="493" type="line" name="hr00" smooth="yes"/>
      <point x="283" y="508"/>
      <point x="274" y="520"/>
      <point x="259" y="520" type="curve" smooth="yes"/>
      <point x="133" y="520" type="line" smooth="yes"/>
      <point x="118" y="520"/>
      <point x="103" y="508"/>
      <point x="100" y="493" type="curve" smooth="yes"/>
      <point x="1" y="27" type="line" smooth="yes"/>
      <point x="-2" y="12"/>
      <point x="8" y="0"/>
      <point x="23" y="0" type="curve" smooth="yes"/>
      <point x="149" y="0" type="line" smooth="yes"/>
      <point x="164" y="0"/>
      <point x="178" y="12"/>
      <point x="181" y="27" type="curve" smooth="yes"/>
    </contour>
    <contour>
      <point x="325" y="703" type="line" smooth="yes"/>
      <point x="328" y="718"/>
      <point x="319" y="730"/>
      <point x="304" y="730" type="curve" smooth="yes"/>
      <point x="178" y="730" type="line" smooth="yes"/>
      <point x="163" y="730"/>
      <point x="148" y="718"/>
      <point x="145" y="703" type="curve" smooth="yes"/>
      <point x="123" y="602" type="line" smooth="yes"/>
      <point x="120" y="587"/>
      <point x="130" y="575"/>
      <point x="145" y="575" type="curve" smooth="yes"/>
      <point x="271" y="575" type="line" smooth="yes"/>
      <point x="286" y="575"/>
      <point x="300" y="587"/>
      <point x="303" y="602" type="curve" smooth="yes"/>
    </contour>
  </outline>
</glyph>
<glyph name="z" format="1">
  <advance width="564"/>
  <unicode hex="007A"/>
  <outline>
    <contour>
      <point x="278" y="155" type="line" name="hr00"/>
      <point x="512" y="367" type="line"/>
      <point x="521" y="376"/>
      <point x="530" y="384"/>
      <point x="532" y="396" type="curve" smooth="yes"/>
      <point x="552" y="493" type="line" smooth="yes"/>
      <point x="555" y="508"/>
      <point x="546" y="520"/>
      <point x="531" y="520" type="curve" smooth="yes"/>
      <point x="125" y="520" type="line" smooth="yes"/>
      <point x="110" y="520"/>
      <point x="95" y="508"/>
      <point x="92" y="493" type="curve" smooth="yes"/>
      <point x="71" y="392" type="line" smooth="yes"/>
      <point x="68" y="377"/>
      <point x="77" y="365"/>
      <point x="92" y="365" type="curve" smooth="yes"/>
      <point x="253" y="365" type="line"/>
      <point x="27" y="159" type="line" smooth="yes"/>
      <point x="17" y="150"/>
      <point x="7" y="140"/>
      <point x="4" y="124" type="curve" smooth="yes"/>
      <point x="-17" y="27" type="line" smooth="yes"/>
      <point x="-20" y="12"/>
      <point x="-10" y="0"/>
      <point x="5" y="0" type="curve" smooth="yes"/>
      <point x="441" y="0" type="line" smooth="yes"/>
      <point x="456" y="0"/>
      <point x="470" y="12"/>
      <point x="473" y="27" type="curve" smooth="yes"/>
      <point x="495" y="128" type="line" smooth="yes"/>
      <point x="498" y="143"/>
      <point x="488" y="155"/>
      <point x="473" y="155" type="curve" smooth="yes"/>
    </contour>
  </outline>
</glyph>
<glyph name="dieresis" format="1">
  <advance width="433"/>
  <unicode hex="00A8"/>
  <outline>
    <contour>
      <point x="207" y="723" type="line" name="hr00" smooth="yes"/>
      <point x="210" y="738"/>
      <point x="201" y="750"/>
      <point x="186" y="750" type="curve" smooth="yes"/>
      <point x="85" y="750" type="line" smooth="yes"/>
      <point x="70" y="750"/>
      <point x="55" y="738"/>
      <point x="52" y="723" type="curve"/>
      <point x="31" y="622" type="line" smooth="yes"/>
      <point x="28" y="607"/>
      <point x="37" y="595"/>
      <point x="52" y="595" type="curve" smooth="yes"/>
      <point x="153" y="595" type="line" smooth="yes"/>
      <point x="168" y="595"/>
      <point x="183" y="607"/>
      <point x="186" y="622" type="curve"/>
    </contour>
    <contour>
      <point x="432" y="723" type="line" smooth="yes"/>
      <point x="435" y="738"/>
      <point x="426" y="750"/>
      <point x="411" y="750" type="curve" smooth="yes"/>
      <point x="310" y="750" type="line" smooth="yes"/>
      <point x="295" y="750"/>
      <point x="280" y="738"/>
      <point x="277" y="723" type="curve" smooth="yes"/>
      <point x="256" y="622" type="line" smooth="yes"/>
      <point x="253" y="607"/>
      <point x="262" y="595"/>
      <point x="277" y="595" type="curve" smooth="yes"/>
      <point x="378" y="595" type="line" smooth="yes"/>
      <point x="393" y="595"/>
      <point x="408" y="607"/>
      <point x="411" y="622" type="curve" smooth="yes"/>
    </contour>
  </outline>
</glyph>
<glyph name="logicalnot" format="1">
  <advance width="575"/>
  <unicode hex="00AC"/>
  <outline>
    <contour>
      <point x="517" y="323" type="line" name="hr00"/>
      <point x="520" y="338"/>
      <point x="511" y="350"/>
      <point x="496" y="350" type="curve" smooth="yes"/>
      <point x="91" y="350" type="line" smooth="yes"/>
      <point x="76" y="350"/>
      <point x="61" y="338"/>
      <point x="58" y="323" type="curve" smooth="yes"/>
      <point x="37" y="222" type="line" smooth="yes"/>
      <point x="33" y="207"/>
      <point x="43" y="195"/>
      <point x="58" y="195" type="curve" smooth="yes"/>
      <point x="310" y="195" type="line"/>
      <point x="290" y="100" type="line" smooth="yes"/>
      <point x="287" y="85"/>
      <point x="296" y="73"/>
      <point x="311" y="73" type="curve" smooth="yes"/>
      <point x="437" y="73" type="line" smooth="yes"/>
      <point x="452" y="73"/>
      <point x="467" y="85"/>
      <point x="470" y="100" type="curve"/>
    </contour>
  </outline>
</glyph>
<glyph name="degree" format="1">
  <advance width="421"/>
  <unicode hex="00B0"/>
  <outline>
    <contour>
      <point x="183" y="534" type="curve" name="hr00" smooth="yes"/>
      <point x="193" y="579"/>
      <point x="230" y="610"/>
      <point x="275" y="610" type="curve" smooth="yes"/>
      <point x="320" y="610"/>
      <point x="345" y="579"/>
      <point x="335" y="534" type="curve" smooth="yes"/>
      <point x="325" y="489"/>
      <point x="288" y="458"/>
      <point x="243" y="458" type="curve" smooth="yes"/>
      <point x="198" y="458"/>
      <point x="173" y="489"/>
    </contour>
    <contour>
      <point x="79" y="539" type="curve" smooth="yes"/>
      <point x="58" y="439"/>
      <point x="132" y="358"/>
      <point x="232" y="358" type="curve" smooth="yes"/>
      <point x="332" y="358"/>
      <point x="418" y="429"/>
      <point x="439" y="529" type="curve" smooth="yes"/>
      <point x="460" y="629"/>
      <point x="386" y="710"/>
      <point x="286" y="710" type="curve" smooth="yes"/>
      <point x="186" y="710"/>
      <point x="100" y="639"/>
    </contour>
  </outline>
</glyph>
<glyph name="plusminus" format="1">
  <advance width="574"/>
  <unicode hex="00B1"/>
  <outline>
    <contour>
      <point x="420" y="0" type="line" name="hr00" smooth="yes"/>
      <point x="435" y="0"/>
      <point x="449" y="12"/>
      <point x="452" y="27" type="curve" smooth="yes"/>
      <point x="474" y="128" type="line" smooth="yes"/>
      <point x="477" y="143"/>
      <point x="467" y="155"/>
      <point x="452" y="155" type="curve" smooth="yes"/>
      <point x="63" y="155" type="line"/>
      <point x="48" y="155"/>
      <point x="34" y="143"/>
      <point x="31" y="128" type="curve"/>
      <point x="9" y="27" type="line" smooth="yes"/>
      <point x="6" y="12"/>
      <point x="16" y="0"/>
      <point x="31" y="0" type="curve" smooth="yes"/>
    </contour>
    <contour>
      <point x="515" y="356" type="line"/>
      <point x="530" y="356"/>
      <point x="545" y="368"/>
      <point x="548" y="383" type="curve" smooth="yes"/>
      <point x="569" y="484" type="line"/>
      <point x="572" y="499"/>
      <point x="563" y="511"/>
      <point x="548" y="511" type="curve"/>
      <point x="423" y="511" type="line"/>
      <point x="451" y="643" type="line"/>
      <point x="454" y="658"/>
      <point x="445" y="670"/>
      <point x="430" y="670" type="curve" smooth="yes"/>
      <point x="307" y="670" type="line" smooth="yes"/>
      <point x="292" y="670"/>
      <point x="277" y="658"/>
      <point x="274" y="643" type="curve" smooth="yes"/>
      <point x="246" y="511" type="line"/>
      <point x="119" y="511" type="line" smooth="yes"/>
      <point x="104" y="511"/>
      <point x="90" y="499"/>
      <point x="86" y="484" type="curve"/>
      <point x="65" y="383" type="line"/>
      <point x="62" y="368"/>
      <point x="71" y="356"/>
      <point x="86" y="356" type="curve"/>
      <point x="213" y="356" type="line"/>
      <point x="184" y="218" type="line" smooth="yes"/>
      <point x="181" y="203"/>
      <point x="190" y="191"/>
      <point x="205" y="191" type="curve" smooth="yes"/>
      <point x="328" y="191" type="line" smooth="yes"/>
      <point x="343" y="191"/>
      <point x="358" y="203"/>
      <point x="361" y="218" type="curve" smooth="yes"/>
      <point x="390" y="356" type="line"/>
    </contour>
  </outline>
</glyph>
<glyph name="mu" format="1">
  <advance width="656"/>
  <unicode hex="00B5"/>
  <outline>
    <contour>
      <point x="45" y="218" type="line"/>
      <point x="42" y="206" type="line"/>
      <point x="-38" y="-173" type="line"/>
      <point x="-41" y="-188"/>
      <point x="-32" y="-200"/>
      <point x="-17" y="-200" type="curve"/>
      <point x="109" y="-200" type="line"/>
      <point x="124" y="-200"/>
      <point x="139" y="-188"/>
      <point x="142" y="-173" type="curve"/>
      <point x="177" y="-8" type="line"/>
      <point x="189" y="-9"/>
      <point x="200" y="-10"/>
      <point x="213" y="-10" type="curve" smooth="yes"/>
      <point x="293" y="-10"/>
      <point x="339" y="22"/>
      <point x="367" y="50" type="curve"/>
      <point x="362" y="27" type="line"/>
      <point x="359" y="12"/>
      <point x="369" y="0"/>
      <point x="384" y="0" type="curve" name="hr01"/>
      <point x="505" y="0" type="line"/>
      <point x="520" y="0"/>
      <point x="534" y="12"/>
      <point x="537" y="27" type="curve"/>
      <point x="636" y="493" type="line"/>
      <point x="639" y="508"/>
      <point x="630" y="520"/>
      <point x="615" y="520" type="curve"/>
      <point x="489" y="520" type="line"/>
      <point x="474" y="520"/>
      <point x="459" y="508"/>
      <point x="456" y="493" type="curve"/>
      <point x="403" y="240" type="line"/>
      <point x="390" y="183"/>
      <point x="346" y="145"/>
      <point x="286" y="145" type="curve" name="hr02" smooth="yes"/>
      <point x="229" y="145"/>
      <point x="218" y="179"/>
      <point x="228" y="231" type="curve"/>
      <point x="283" y="493" type="line"/>
      <point x="286" y="508"/>
      <point x="277" y="520"/>
      <point x="262" y="520" type="curve"/>
      <point x="136" y="520" type="line"/>
      <point x="121" y="520"/>
      <point x="106" y="508"/>
      <point x="103" y="493" type="curve"/>
      <point x="102" y="486" type="line"/>
      <point x="101" y="483" type="line"/>
    </contour>
  </outline>
</glyph>
<glyph name="periodcentered" format="1">
  <advance width="333"/>
  <unicode hex="00B7"/>
  <outline>
    <contour>
      <point x="36" y="300" type="curve" name="hr00" smooth="yes"/>
      <point x="21" y="228"/>
      <point x="67" y="170"/>
      <point x="139" y="170" type="curve" smooth="yes"/>
      <point x="211" y="170"/>
      <point x="281" y="228"/>
      <point x="296" y="300" type="curve" smooth="yes"/>
      <point x="312" y="372"/>
      <point x="266" y="430"/>
      <point x="194" y="430" type="curve" smooth="yes"/>
      <point x="122" y="430"/>
      <point x="52" y="372"/>
    </contour>
  </outline>
</glyph>
<glyph name="ordmasculine" format="1">
  <advance width="351"/>
  <unicode hex="00BA"/>
  <outline>
    <contour>
      <point x="250" y="705" type="curve" name="hr00" smooth="yes"/>
      <point x="174" y="705"/>
      <point x="116" y="666"/>
      <point x="97" y="594" type="curve" smooth="yes"/>
      <point x="94" y="584"/>
      <point x="86" y="550"/>
      <point x="85" y="540" type="curve" smooth="yes"/>
      <point x="74" y="468"/>
      <point x="140" y="429"/>
      <point x="212" y="429" type="curve" smooth="yes"/>
      <point x="294" y="429"/>
      <point x="346" y="468"/>
      <point x="365" y="540" type="curve" smooth="yes"/>
      <point x="368" y="550"/>
      <point x="376" y="584"/>
      <point x="377" y="594" type="curve" smooth="yes"/>
      <point x="388" y="666"/>
      <point x="316" y="705"/>
    </contour>
    <contour>
      <point x="244" y="629" type="curve" smooth="yes"/>
      <point x="261" y="629"/>
      <point x="269" y="619"/>
      <point x="265" y="589" type="curve" smooth="yes"/>
      <point x="264" y="579"/>
      <point x="258" y="555"/>
      <point x="255" y="545" type="curve" smooth="yes"/>
      <point x="246" y="512"/>
      <point x="235" y="505"/>
      <point x="218" y="505" type="curve" smooth="yes"/>
      <point x="201" y="505"/>
      <point x="192" y="512"/>
      <point x="197" y="545" type="curve" smooth="yes"/>
      <point x="198" y="555"/>
      <point x="204" y="579"/>
      <point x="207" y="589" type="curve" smooth="yes"/>
      <point x="215" y="619"/>
      <point x="227" y="629"/>
    </contour>
  </outline>
</glyph>
<glyph name="AE" format="1">
  <advance width="1016"/>
  <unicode hex="00C6"/>
  <outline>
    <contour>
      <point x="419" y="700" type="line" smooth="yes"/>
      <point x="392" y="700"/>
      <point x="378" y="681"/>
      <point x="367" y="667" type="curve"/>
      <point x="-47" y="39" type="line"/>
      <point x="-51" y="34"/>
      <point x="-53" y="31"/>
      <point x="-54" y="27" type="curve" smooth="yes"/>
      <point x="-57" y="12"/>
      <point x="-47" y="0"/>
      <point x="-32" y="0" type="curve" smooth="yes"/>
      <point x="96" y="0" type="line" smooth="yes"/>
      <point x="118" y="0"/>
      <point x="132" y="15"/>
      <point x="140" y="25" type="curve"/>
      <point x="194" y="108" type="line" name="hr01"/>
      <point x="403" y="108" type="line"/>
      <point x="386" y="27" type="line" smooth="yes"/>
      <point x="383" y="12"/>
      <point x="393" y="0"/>
      <point x="408" y="0" type="curve" name="hr02" smooth="yes"/>
      <point x="882" y="0" type="line" smooth="yes"/>
      <point x="897" y="0"/>
      <point x="911" y="12"/>
      <point x="914" y="27" type="curve" smooth="yes"/>
      <point x="937" y="133" type="line" smooth="yes"/>
      <point x="940" y="148"/>
      <point x="931" y="160"/>
      <point x="916" y="160" type="curve" smooth="yes"/>
      <point x="600" y="160" type="line"/>
      <point x="623" y="272" type="line"/>
      <point x="909" y="272" type="line" smooth="yes"/>
      <point x="924" y="272"/>
      <point x="939" y="284"/>
      <point x="942" y="299" type="curve" smooth="yes"/>
      <point x="965" y="405" type="line" smooth="yes"/>
      <point x="968" y="420"/>
      <point x="958" y="432"/>
      <point x="943" y="432" type="curve" smooth="yes"/>
      <point x="657" y="432" type="line"/>
      <point x="680" y="540" type="line"/>
      <point x="988" y="540" type="line" smooth="yes"/>
      <point x="1003" y="540"/>
      <point x="1018" y="552"/>
      <point x="1021" y="567" type="curve" smooth="yes"/>
      <point x="1044" y="673" type="line" smooth="yes"/>
      <point x="1047" y="688"/>
      <point x="1037" y="700"/>
      <point x="1022" y="700" type="curve" smooth="yes"/>
    </contour>
    <contour>
      <point x="478" y="540" type="line"/>
      <point x="495" y="540" type="line"/>
      <point x="436" y="263" type="line" name="hr03"/>
      <point x="296" y="263" type="line"/>
    </contour>
  </outline>
</glyph>
<glyph name="Ccedilla" format="1">
  <advance width="703"/>
  <unicode hex="00C7"/>
  <outline>
    <contour>
      <point x="262" y="434" type="curve" name="hr00" smooth="yes"/>
      <point x="280" y="495"/>
      <point x="322" y="550"/>
      <point x="412" y="550" type="curve" smooth="yes"/>
      <point x="502" y="550"/>
      <point x="516" y="503"/>
      <point x="521" y="471" type="curve"/>
      <point x="523" y="450"/>
      <point x="526" y="442"/>
      <point x="548" y="442" type="curve"/>
      <point x="679" y="442" type="line"/>
      <point x="691" y="442"/>
      <point x="704" y="452"/>
      <point x="706" y="464" type="curve" smooth="yes"/>
      <point x="732" y="600"/>
      <point x="592" y="710"/>
      <point x="436" y="710" type="curve" smooth="yes"/>
      <point x="224" y="710"/>
      <point x="115" y="586"/>
      <point x="78" y="439" type="curve" smooth="yes"/>
      <point x="64" y="382"/>
      <point x="48" y="315"/>
      <point x="40" y="261" type="curve" smooth="yes"/>
      <point x="19" y="132"/>
      <point x="104" y="22"/>
      <point x="240" y="-4" type="curve"/>
      <point x="207" y="-52" type="line"/>
      <point x="197" y="-67"/>
      <point x="201" y="-75"/>
      <point x="206" y="-85" type="curve"/>
      <point x="220" y="-106" type="line"/>
      <point x="230" y="-119"/>
      <point x="256" y="-105"/>
      <point x="274" y="-105" type="curve" smooth="yes"/>
      <point x="294" y="-105"/>
      <point x="305" y="-113"/>
      <point x="301" y="-132" type="curve" smooth="yes"/>
      <point x="297" y="-152"/>
      <point x="282" y="-159"/>
      <point x="263" y="-159" type="curve" smooth="yes"/>
      <point x="228" y="-159"/>
      <point x="231" y="-133"/>
      <point x="205" y="-153" type="curve"/>
      <point x="184" y="-169" type="line"/>
      <point x="156" y="-189"/>
      <point x="217" y="-220"/>
      <point x="260" y="-220" type="curve" smooth="yes"/>
      <point x="330" y="-220"/>
      <point x="357" y="-183"/>
      <point x="367" y="-135" type="curve" smooth="yes"/>
      <point x="378" y="-87"/>
      <point x="351" y="-44"/>
      <point x="310" y="-44" type="curve" smooth="yes"/>
      <point x="295" y="-44"/>
      <point x="280" y="-49"/>
      <point x="271" y="-54" type="curve"/>
      <point x="301" y="-10" type="line"/>
      <point x="303" y="-10" type="line"/>
      <point x="499" y="-10"/>
      <point x="626" y="100"/>
      <point x="658" y="236" type="curve"/>
      <point x="660" y="248"/>
      <point x="652" y="258"/>
      <point x="640" y="258" type="curve"/>
      <point x="509" y="258" type="line"/>
      <point x="487" y="258"/>
      <point x="481" y="250"/>
      <point x="469" y="229" type="curve" smooth="yes"/>
      <point x="451" y="197"/>
      <point x="417" y="150"/>
      <point x="327" y="150" type="curve" smooth="yes"/>
      <point x="237" y="150"/>
      <point x="218" y="205"/>
      <point x="226" y="266" type="curve" smooth="yes"/>
      <point x="231" y="302"/>
      <point x="251" y="399"/>
    </contour>
  </outline>
</glyph>
<glyph name="Oslash" format="1">
  <advance width="754"/>
  <unicode hex="00D8"/>
  <outline>
    <contour>
      <point x="95" y="439" type="curve" name="hr00" smooth="yes"/>
      <point x="82" y="390"/>
      <point x="69" y="334"/>
      <point x="61" y="285" type="curve"/>
      <point x="30" y="274" type="line"/>
      <point x="12" y="268"/>
      <point x="5" y="259"/>
      <point x="1" y="241" type="curve"/>
      <point x="-12" y="183" type="line"/>
      <point x="-14" y="171"/>
      <point x="-7" y="162"/>
      <point x="5" y="162" type="curve" smooth="yes"/>
      <point x="7" y="162"/>
      <point x="11" y="163"/>
      <point x="17" y="165" type="curve"/>
      <point x="57" y="179" type="line"/>
      <point x="77" y="69"/>
      <point x="178" y="-10"/>
      <point x="321" y="-10" type="curve" smooth="yes"/>
      <point x="537" y="-10"/>
      <point x="641" y="111"/>
      <point x="681" y="261" type="curve" smooth="yes"/>
      <point x="693" y="307"/>
      <point x="706" y="362"/>
      <point x="715" y="413" type="curve"/>
      <point x="746" y="424" type="line"/>
      <point x="763" y="430"/>
      <point x="771" y="439"/>
      <point x="775" y="457" type="curve"/>
      <point x="787" y="515" type="line"/>
      <point x="790" y="527"/>
      <point x="782" y="536"/>
      <point x="770" y="536" type="curve" smooth="yes"/>
      <point x="768" y="536"/>
      <point x="764" y="535"/>
      <point x="759" y="533" type="curve"/>
      <point x="718" y="518" type="line"/>
      <point x="699" y="629"/>
      <point x="597" y="710"/>
      <point x="454" y="710" type="curve" smooth="yes"/>
      <point x="238" y="710"/>
      <point x="135" y="589"/>
    </contour>
    <contour>
      <point x="279" y="434" type="curve" smooth="yes"/>
      <point x="299" y="500"/>
      <point x="347" y="550"/>
      <point x="430" y="550" type="curve" smooth="yes"/>
      <point x="504" y="550"/>
      <point x="535" y="509"/>
      <point x="534" y="453" type="curve"/>
      <point x="259" y="355" type="line"/>
      <point x="265" y="384"/>
      <point x="272" y="412"/>
    </contour>
    <contour>
      <point x="497" y="266" type="curve" smooth="yes"/>
      <point x="477" y="200"/>
      <point x="428" y="150"/>
      <point x="345" y="150" type="curve" smooth="yes"/>
      <point x="271" y="150"/>
      <point x="241" y="189"/>
      <point x="241" y="245" type="curve"/>
      <point x="516" y="342" type="line"/>
      <point x="510" y="314"/>
      <point x="503" y="287"/>
    </contour>
  </outline>
</glyph>
<glyph name="dotlessi" format="1">
  <advance width="296"/>
  <unicode hex="0131"/>
  <outline>
    <contour>
      <point x="280" y="493" type="line" name="hr00" smooth="yes"/>
      <point x="283" y="508"/>
      <point x="274" y="520"/>
      <point x="259" y="520" type="curve" smooth="yes"/>
      <point x="133" y="520" type="line" smooth="yes"/>
      <point x="118" y="520"/>
      <point x="103" y="508"/>
      <point x="100" y="493" type="curve" smooth="yes"/>
      <point x="1" y="27" type="line" smooth="yes"/>
      <point x="-2" y="12"/>
      <point x="8" y="0"/>
      <point x="23" y="0" type="curve" smooth="yes"/>
      <point x="149" y="0" type="line" smooth="yes"/>
      <point x="164" y="0"/>
      <point x="178" y="12"/>
      <point x="181" y="27" type="curve" smooth="yes"/>
    </contour>
  </outline>
</glyph>
<glyph name="Eng" format="1">
  <advance width="727"/>
  <unicode hex="014A"/>
  <outline>
    <contour>
      <point x="405" y="-17" type="line" name="hr00"/>
      <point x="400" y="-42"/>
      <point x="384" y="-65"/>
      <point x="352" y="-65" type="curve"/>
      <point x="312" y="-65" type="line"/>
      <point x="297" y="-65"/>
      <point x="282" y="-77"/>
      <point x="279" y="-92" type="curve"/>
      <point x="256" y="-198" type="line"/>
      <point x="253" y="-213"/>
      <point x="263" y="-225"/>
      <point x="278" y="-225" type="curve"/>
      <point x="358" y="-225" type="line"/>
      <point x="503" y="-225"/>
      <point x="564" y="-140"/>
      <point x="590" y="-17" type="curve"/>
      <point x="736" y="673" type="line"/>
      <point x="739" y="688"/>
      <point x="729" y="700"/>
      <point x="714" y="700" type="curve"/>
      <point x="583" y="700" type="line"/>
      <point x="568" y="700"/>
      <point x="554" y="688"/>
      <point x="551" y="673" type="curve"/>
      <point x="479" y="335" type="line"/>
      <point x="302" y="677" type="line"/>
      <point x="299" y="683"/>
      <point x="289" y="700"/>
      <point x="266" y="700" type="curve"/>
      <point x="182" y="700" type="line"/>
      <point x="167" y="700"/>
      <point x="153" y="688"/>
      <point x="150" y="673" type="curve"/>
      <point x="12" y="27" type="line"/>
      <point x="9" y="12"/>
      <point x="19" y="0"/>
      <point x="34" y="0" type="curve"/>
      <point x="165" y="0" type="line"/>
      <point x="180" y="0"/>
      <point x="194" y="12"/>
      <point x="197" y="27" type="curve"/>
      <point x="269" y="365" type="line"/>
      <point x="422" y="66" type="line"/>
    </contour>
  </outline>
</glyph>
<glyph name="scedilla" format="1">
  <advance width="561"/>
  <unicode hex="015F"/>
  <outline>
    <contour>
      <point x="322" y="156" type="curve" smooth="yes"/>
      <point x="317" y="136"/>
      <point x="281" y="125"/>
      <point x="241" y="125" type="curve" smooth="yes"/>
      <point x="161" y="125"/>
      <point x="181" y="160"/>
      <point x="152" y="160" type="curve" smooth="yes"/>
      <point x="28" y="160" type="line" smooth="yes"/>
      <point x="13" y="160"/>
      <point x="-3" y="148"/>
      <point x="-5" y="133" type="curve" smooth="yes"/>
      <point x="-11" y="80"/>
      <point x="54" y="15"/>
      <point x="158" y="-4" type="curve"/>
      <point x="125" y="-52" type="line" smooth="yes"/>
      <point x="115" y="-67"/>
      <point x="119" y="-75"/>
      <point x="124" y="-85" type="curve"/>
      <point x="138" y="-106" type="line" smooth="yes"/>
      <point x="148" y="-119"/>
      <point x="174" y="-105"/>
      <point x="192" y="-105" type="curve" smooth="yes"/>
      <point x="212" y="-105"/>
      <point x="223" y="-113"/>
      <point x="219" y="-132" type="curve" smooth="yes"/>
      <point x="215" y="-152"/>
      <point x="200" y="-159"/>
      <point x="181" y="-159" type="curve" smooth="yes"/>
      <point x="146" y="-159"/>
      <point x="149" y="-133"/>
      <point x="123" y="-153" type="curve" smooth="yes"/>
      <point x="102" y="-169" type="line" smooth="yes"/>
      <point x="74" y="-189"/>
      <point x="135" y="-220"/>
      <point x="178" y="-220" type="curve" smooth="yes"/>
      <point x="248" y="-220"/>
      <point x="275" y="-183"/>
      <point x="285" y="-135" type="curve" smooth="yes"/>
      <point x="296" y="-87"/>
      <point x="269" y="-44"/>
      <point x="228" y="-44" type="curve" smooth="yes"/>
      <point x="213" y="-44"/>
      <point x="198" y="-49"/>
      <point x="189" y="-54" type="curve"/>
      <point x="219" y="-10" type="line"/>
      <point x="222" y="-10" type="line" smooth="yes"/>
      <point x="402" y="-10"/>
      <point x="481" y="59"/>
      <point x="500" y="149" type="curve" smooth="yes"/>
      <point x="517" y="229"/>
      <point x="480" y="299"/>
      <point x="363" y="319" type="curve" smooth="yes"/>
      <point x="249" y="339"/>
      <point x="228" y="337"/>
      <point x="235" y="367" type="curve" smooth="yes"/>
      <point x="239" y="387"/>
      <point x="264" y="395"/>
      <point x="294" y="395" type="curve" smooth="yes"/>
      <point x="364" y="395"/>
      <point x="356" y="363"/>
      <point x="385" y="363" type="curve" name="hr01" smooth="yes"/>
      <point x="504" y="363" type="line" smooth="yes"/>
      <point x="519" y="363"/>
      <point x="534" y="375"/>
      <point x="536" y="390" type="curve" smooth="yes"/>
      <point x="545" y="458"/>
      <point x="443" y="530"/>
      <point x="313" y="530" type="curve" smooth="yes"/>
      <point x="153" y="530"/>
      <point x="75" y="464"/>
      <point x="56" y="374" type="curve" smooth="yes"/>
      <point x="37" y="284"/>
      <point x="80" y="224"/>
      <point x="178" y="206" type="curve" smooth="yes"/>
      <point x="291" y="185"/>
      <point x="328" y="186"/>
    </contour>
  </outline>
</glyph>
<glyph name="Tbar" format="1">
  <advance width="638"/>
  <unicode hex="0166"/>
  <outline>
    <contour>
      <point x="502" y="287" type="line" name="hr00"/>
      <point x="517" y="287"/>
      <point x="531" y="299"/>
      <point x="534" y="314" type="curve"/>
      <point x="546" y="367" type="line"/>
      <point x="549" y="382"/>
      <point x="539" y="394"/>
      <point x="524" y="394" type="curve"/>
      <point x="431" y="394" type="line"/>
      <point x="462" y="540" type="line"/>
      <point x="638" y="540" type="line"/>
      <point x="653" y="540"/>
      <point x="668" y="552"/>
      <point x="671" y="567" type="curve"/>
      <point x="694" y="673" type="line"/>
      <point x="697" y="688"/>
      <point x="687" y="700"/>
      <point x="672" y="700" type="curve"/>
      <point x="135" y="700" type="line"/>
      <point x="120" y="700"/>
      <point x="106" y="688"/>
      <point x="103" y="673" type="curve"/>
      <point x="80" y="567" type="line"/>
      <point x="77" y="552"/>
      <point x="86" y="540"/>
      <point x="101" y="540" type="curve"/>
      <point x="277" y="540" type="line"/>
      <point x="246" y="394" type="line"/>
      <point x="153" y="394" type="line"/>
      <point x="138" y="394"/>
      <point x="124" y="382"/>
      <point x="121" y="367" type="curve"/>
      <point x="109" y="314" type="line"/>
      <point x="106" y="299"/>
      <point x="116" y="287"/>
      <point x="131" y="287" type="curve"/>
      <point x="224" y="287" type="line"/>
      <point x="168" y="27" type="line"/>
      <point x="165" y="12"/>
      <point x="175" y="0"/>
      <point x="190" y="0" type="curve"/>
      <point x="321" y="0" type="line"/>
      <point x="336" y="0"/>
      <point x="350" y="12"/>
      <point x="353" y="27" type="curve"/>
      <point x="409" y="287" type="line"/>
    </contour>
  </outline>
</glyph>
<glyph name="tbar" format="1">
  <advance width="471"/>
  <unicode hex="0167"/>
  <outline>
    <contour>
      <point x="423" y="370" type="curve" name="hr00"/>
      <point x="310" y="370" type="line"/>
      <point x="320" y="415" type="line"/>
      <point x="433" y="415" type="line" smooth="yes"/>
      <point x="448" y="415"/>
      <point x="462" y="427"/>
      <point x="465" y="442" type="curve" smooth="yes"/>
      <point x="476" y="493" type="line" smooth="yes"/>
      <point x="479" y="508"/>
      <point x="470" y="520"/>
      <point x="455" y="520" type="curve" smooth="yes"/>
      <point x="342" y="520" type="line"/>
      <point x="377" y="683" type="line" smooth="yes"/>
      <point x="380" y="698"/>
      <point x="370" y="710"/>
      <point x="355" y="710" type="curve" smooth="yes"/>
      <point x="229" y="710" type="line" smooth="yes"/>
      <point x="214" y="710"/>
      <point x="200" y="698"/>
      <point x="197" y="683" type="curve" smooth="yes"/>
      <point x="162" y="520" type="line"/>
      <point x="88" y="520" type="line" smooth="yes"/>
      <point x="73" y="520"/>
      <point x="58" y="508"/>
      <point x="55" y="493" type="curve" smooth="yes"/>
      <point x="44" y="442" type="line" smooth="yes"/>
      <point x="41" y="427"/>
      <point x="51" y="415"/>
      <point x="66" y="415" type="curve" smooth="yes"/>
      <point x="140" y="415" type="line"/>
      <point x="130" y="370" type="line"/>
      <point x="56" y="370" type="line" smooth="yes"/>
      <point x="41" y="370"/>
      <point x="27" y="358"/>
      <point x="23" y="343" type="curve"/>
      <point x="13" y="292" type="line"/>
      <point x="9" y="277"/>
      <point x="19" y="265"/>
      <point x="34" y="265" type="curve" smooth="yes"/>
      <point x="108" y="265" type="line"/>
      <point x="93" y="197" type="line" smooth="yes"/>
      <point x="67" y="74"/>
      <point x="165" y="0"/>
      <point x="270" y="0" type="curve" smooth="yes"/>
      <point x="355" y="0" type="line" smooth="yes"/>
      <point x="370" y="0"/>
      <point x="384" y="12"/>
      <point x="387" y="27" type="curve" smooth="yes"/>
      <point x="409" y="128" type="line" smooth="yes"/>
      <point x="412" y="143"/>
      <point x="402" y="155"/>
      <point x="387" y="155" type="curve" smooth="yes"/>
      <point x="307" y="155" type="line" smooth="yes"/>
      <point x="277" y="155"/>
      <point x="268" y="173"/>
      <point x="275" y="203" type="curve" smooth="yes"/>
      <point x="288" y="265" type="line"/>
      <point x="401" y="265" type="line" smooth="yes"/>
      <point x="416" y="265"/>
      <point x="430" y="277"/>
      <point x="434" y="292" type="curve"/>
      <point x="444" y="343" type="line"/>
      <point x="448" y="358"/>
      <point x="438" y="370"/>
    </contour>
  </outline>
</glyph>
<glyph name="Uogonek" format="1">
  <advance width="735"/>
  <unicode hex="0172"/>
  <outline>
    <contour>
      <point x="598" y="700" type="line" name="hr00"/>
      <point x="583" y="700"/>
      <point x="569" y="688"/>
      <point x="566" y="673" type="curve"/>
      <point x="482" y="278" type="line"/>
      <point x="465" y="198"/>
      <point x="414" y="150"/>
      <point x="335" y="150" type="curve" smooth="yes"/>
      <point x="256" y="150"/>
      <point x="227" y="198"/>
      <point x="244" y="278" type="curve"/>
      <point x="328" y="673" type="line"/>
      <point x="331" y="688"/>
      <point x="321" y="700"/>
      <point x="306" y="700" type="curve"/>
      <point x="175" y="700" type="line"/>
      <point x="160" y="700"/>
      <point x="146" y="688"/>
      <point x="143" y="673" type="curve"/>
      <point x="58" y="274" type="line"/>
      <point x="29" y="136"/>
      <point x="94" y="45"/>
      <point x="197" y="8" type="curve"/>
      <point x="188" y="-9"/>
      <point x="182" y="-29"/>
      <point x="178" y="-51" type="curve"/>
      <point x="157" y="-146"/>
      <point x="223" y="-220"/>
      <point x="304" y="-220" type="curve"/>
      <point x="323" y="-220" type="line"/>
      <point x="336" y="-220"/>
      <point x="347" y="-211"/>
      <point x="349" y="-198" type="curve"/>
      <point x="363" y="-134" type="line"/>
      <point x="366" y="-121"/>
      <point x="359" y="-112"/>
      <point x="346" y="-112" type="curve"/>
      <point x="331" y="-112" type="line"/>
      <point x="297" y="-112"/>
      <point x="282" y="-87"/>
      <point x="289" y="-56" type="curve"/>
      <point x="294" y="-27"/>
      <point x="315" y="-12"/>
      <point x="346" y="-9" type="curve" smooth="yes"/>
      <point x="523" y="11"/>
      <point x="629" y="101"/>
      <point x="666" y="274" type="curve"/>
      <point x="751" y="673" type="line"/>
      <point x="754" y="688"/>
      <point x="744" y="700"/>
      <point x="729" y="700" type="curve"/>
    </contour>
  </outline>
</glyph>
<glyph name="circumflex" format="1">
  <advance width="408"/>
  <unicode hex="02C6"/>
  <outline>
    <contour>
      <point x="206" y="755" type="line" name="hr00" smooth="yes"/>
      <point x="189" y="755"/>
      <point x="181" y="750"/>
      <point x="165" y="736" type="curve" smooth="yes"/>
      <point x="36" y="621" type="line" smooth="yes"/>
      <point x="27" y="613"/>
      <point x="27" y="595"/>
      <point x="44" y="595" type="curve" smooth="yes"/>
      <point x="121" y="595" type="line" smooth="yes"/>
      <point x="134" y="595"/>
      <point x="142" y="599"/>
      <point x="155" y="606" type="curve" smooth="yes"/>
      <point x="235" y="650" type="line"/>
      <point x="308" y="606" type="line" smooth="yes"/>
      <point x="319" y="599"/>
      <point x="324" y="595"/>
      <point x="337" y="595" type="curve" smooth="yes"/>
      <point x="388" y="595" type="line" smooth="yes"/>
      <point x="402" y="595"/>
      <point x="413" y="611"/>
      <point x="405" y="624" type="curve"/>
      <point x="327" y="736" type="line" smooth="yes"/>
      <point x="317" y="750"/>
      <point x="309" y="755"/>
      <point x="294" y="755" type="curve" smooth="yes"/>
    </contour>
  </outline>
</glyph>
<glyph name="breve" format="1">
  <advance width="362"/>
  <unicode hex="02D8"/>
  <outline>
    <contour>
      <point x="176" y="590" type="curve" smooth="yes"/>
      <point x="309" y="590"/>
      <point x="347" y="671"/>
      <point x="361" y="736" type="curve" smooth="yes"/>
      <point x="363" y="746"/>
      <point x="358" y="755"/>
      <point x="346" y="755" type="curve" smooth="yes"/>
      <point x="262" y="755" type="line" smooth="yes"/>
      <point x="250" y="755"/>
      <point x="241" y="746"/>
      <point x="239" y="736" type="curve" smooth="yes"/>
      <point x="234" y="711"/>
      <point x="214" y="686"/>
      <point x="186" y="686" type="curve" name="hr01" smooth="yes"/>
      <point x="158" y="686"/>
      <point x="150" y="711"/>
      <point x="155" y="736" type="curve" smooth="yes"/>
      <point x="157" y="746"/>
      <point x="152" y="755"/>
      <point x="140" y="755" type="curve" name="hr02" smooth="yes"/>
      <point x="56" y="755" type="line" smooth="yes"/>
      <point x="44" y="755"/>
      <point x="35" y="746"/>
      <point x="33" y="736" type="curve" smooth="yes"/>
      <point x="19" y="671"/>
      <point x="63" y="590"/>
    </contour>
  </outline>
</glyph>
<glyph name="afii10059" format="1">
  <advance width="1042"/>
  <unicode hex="040A"/>
  <outline>
    <contour>
      <point x="534" y="673" type="curve" name="hr00"/>
      <point x="482" y="432" type="line"/>
      <point x="283" y="432" type="line"/>
      <point x="335" y="673" type="line"/>
      <point x="338" y="688"/>
      <point x="328" y="700"/>
      <point x="313" y="700" type="curve"/>
      <point x="182" y="700" type="line"/>
      <point x="167" y="700"/>
      <point x="153" y="688"/>
      <point x="150" y="673" type="curve"/>
      <point x="12" y="27" type="line"/>
      <point x="9" y="11"/>
      <point x="19" y="0"/>
      <point x="34" y="0" type="curve"/>
      <point x="165" y="0" type="line"/>
      <point x="180" y="0"/>
      <point x="194" y="12"/>
      <point x="197" y="27" type="curve"/>
      <point x="249" y="272" type="line"/>
      <point x="447" y="272" type="line"/>
      <point x="395" y="27" type="line"/>
      <point x="392" y="12"/>
      <point x="402" y="0"/>
      <point x="417" y="0" type="curve"/>
      <point x="748" y="0" type="line"/>
      <point x="908" y="0"/>
      <point x="975" y="92"/>
      <point x="1001" y="212" type="curve" smooth="yes"/>
      <point x="1026" y="332"/>
      <point x="950" y="436"/>
      <point x="820" y="436" type="curve"/>
      <point x="667" y="436" type="line"/>
      <point x="719" y="673" type="line"/>
      <point x="722" y="688"/>
      <point x="712" y="700"/>
      <point x="697" y="700" type="curve"/>
      <point x="566" y="700" type="line"/>
      <point x="551" y="700"/>
      <point x="537" y="688"/>
    </contour>
    <contour>
      <point x="817" y="218" type="curve" smooth="yes"/>
      <point x="810" y="186"/>
      <point x="789" y="160"/>
      <point x="737" y="160" type="curve"/>
      <point x="609" y="160" type="line"/>
      <point x="633" y="276" type="line"/>
      <point x="761" y="276" type="line"/>
      <point x="813" y="276"/>
      <point x="824" y="251"/>
    </contour>
  </outline>
</glyph>
<glyph name="afii10033" format="1">
  <advance width="752"/>
  <unicode hex="041F"/>
  <outline>
    <contour>
      <point x="740" y="700" type="curve" name="hr00"/>
      <point x="182" y="700" type="line" smooth="yes"/>
      <point x="167" y="700"/>
      <point x="153" y="688"/>
      <point x="150" y="673" type="curve"/>
      <point x="12" y="27" type="line"/>
      <point x="9" y="12"/>
      <point x="19" y="0"/>
      <point x="34" y="0" type="curve"/>
      <point x="165" y="0" type="line"/>
      <point x="180" y="0"/>
      <point x="194" y="12"/>
      <point x="197" y="27" type="curve" smooth="yes"/>
      <point x="306" y="540" type="line"/>
      <point x="548" y="540" type="line"/>
      <point x="439" y="27" type="line" smooth="yes"/>
      <point x="436" y="12"/>
      <point x="446" y="0"/>
      <point x="461" y="0" type="curve" smooth="yes"/>
      <point x="592" y="0" type="line" smooth="yes"/>
      <point x="607" y="0"/>
      <point x="621" y="12"/>
      <point x="624" y="27" type="curve" smooth="yes"/>
      <point x="762" y="673" type="line" smooth="yes"/>
      <point x="765" y="688"/>
      <point x="755" y="700"/>
    </contour>
  </outline>
</glyph>
<glyph name="afii10038" format="1">
  <advance width="796"/>
  <unicode hex="0424"/>
  <outline>
    <contour>
      <point x="574" y="693" type="line" name="hr00" smooth="yes"/>
      <point x="577" y="708"/>
      <point x="568" y="720"/>
      <point x="553" y="720" type="curve" smooth="yes"/>
      <point x="422" y="720" type="line" smooth="yes"/>
      <point x="407" y="720"/>
      <point x="392" y="708"/>
      <point x="389" y="693" type="curve" smooth="yes"/>
      <point x="373" y="619" type="line"/>
      <point x="198" y="589"/>
      <point x="68" y="515"/>
      <point x="35" y="360" type="curve" smooth="yes"/>
      <point x="-1" y="193"/>
      <point x="144" y="104"/>
      <point x="259" y="81" type="curve"/>
      <point x="243" y="7" type="line" smooth="yes"/>
      <point x="240" y="-8"/>
      <point x="249" y="-20"/>
      <point x="264" y="-20" type="curve" smooth="yes"/>
      <point x="395" y="-20" type="line" smooth="yes"/>
      <point x="410" y="-20"/>
      <point x="425" y="-8"/>
      <point x="428" y="7" type="curve" smooth="yes"/>
      <point x="444" y="81" type="line"/>
      <point x="639" y="108"/>
      <point x="755" y="191"/>
      <point x="782" y="340" type="curve" smooth="yes"/>
      <point x="811" y="497"/>
      <point x="689" y="602"/>
      <point x="558" y="619" type="curve"/>
    </contour>
    <contour>
      <point x="293" y="241" type="line"/>
      <point x="219" y="256"/>
      <point x="209" y="303"/>
      <point x="219" y="350" type="curve" smooth="yes"/>
      <point x="229" y="397"/>
      <point x="259" y="444"/>
      <point x="339" y="459" type="curve"/>
    </contour>
    <contour>
      <point x="598" y="350" type="curve" smooth="yes"/>
      <point x="588" y="303"/>
      <point x="558" y="256"/>
      <point x="478" y="241" type="curve"/>
      <point x="524" y="459" type="line"/>
      <point x="598" y="444"/>
      <point x="608" y="397"/>
    </contour>
  </outline>
</glyph>
<glyph name="afii10041" format="1">
  <advance width="691"/>
  <unicode hex="0427"/>
  <outline>
    <contour>
      <point x="295" y="673" type="line" name="hr00" smooth="yes"/>
      <point x="298" y="688"/>
      <point x="288" y="700"/>
      <point x="273" y="700" type="curve" smooth="yes"/>
      <point x="142" y="700" type="line" smooth="yes"/>
      <point x="127" y="700"/>
      <point x="113" y="688"/>
      <point x="110" y="673" type="curve" smooth="yes"/>
      <point x="73" y="502" type="line" smooth="yes"/>
      <point x="37" y="332"/>
      <point x="143" y="236"/>
      <point x="293" y="236" type="curve" smooth="yes"/>
      <point x="423" y="236" type="line"/>
      <point x="378" y="27" type="line" smooth="yes"/>
      <point x="375" y="12"/>
      <point x="385" y="0"/>
      <point x="400" y="0" type="curve" smooth="yes"/>
      <point x="531" y="0" type="line" smooth="yes"/>
      <point x="546" y="0"/>
      <point x="560" y="12"/>
      <point x="563" y="27" type="curve" smooth="yes"/>
      <point x="701" y="673" type="line" smooth="yes"/>
      <point x="704" y="688"/>
      <point x="694" y="700"/>
      <point x="679" y="700" type="curve" smooth="yes"/>
      <point x="548" y="700" type="line" smooth="yes"/>
      <point x="533" y="700"/>
      <point x="519" y="688"/>
      <point x="516" y="673" type="curve" smooth="yes"/>
      <point x="457" y="396" type="line"/>
      <point x="346" y="396" type="line" smooth="yes"/>
      <point x="266" y="396"/>
      <point x="242" y="427"/>
      <point x="259" y="507" type="curve" smooth="yes"/>
    </contour>
  </outline>
</glyph>
<glyph name="afii10048" format="1">
  <advance width="1047"/>
  <unicode hex="042E"/>
  <outline>
    <contour>
      <point x="283" y="432" type="line"/>
      <point x="335" y="673" type="line"/>
      <point x="338" y="688"/>
      <point x="328" y="700"/>
      <point x="313" y="700" type="curve"/>
      <point x="182" y="700" type="line"/>
      <point x="167" y="700"/>
      <point x="153" y="688"/>
      <point x="150" y="673" type="curve"/>
      <point x="12" y="27" type="line"/>
      <point x="9" y="11"/>
      <point x="19" y="0"/>
      <point x="34" y="0" type="curve"/>
      <point x="165" y="0" type="line"/>
      <point x="180" y="0"/>
      <point x="194" y="12"/>
      <point x="197" y="27" type="curve"/>
      <point x="249" y="272" type="line"/>
      <point x="369" y="272" type="line"/>
      <point x="347" y="121"/>
      <point x="441" y="-10"/>
      <point x="632" y="-10" type="curve" name="hr01" smooth="yes"/>
      <point x="848" y="-10"/>
      <point x="952" y="111"/>
      <point x="992" y="261" type="curve" smooth="yes"/>
      <point x="1006" y="315"/>
      <point x="1021" y="382"/>
      <point x="1030" y="439" type="curve" smooth="yes"/>
      <point x="1054" y="589"/>
      <point x="941" y="710"/>
      <point x="765" y="710" type="curve" smooth="yes"/>
      <point x="549" y="710"/>
      <point x="442" y="587"/>
      <point x="404" y="432" type="curve"/>
    </contour>
    <contour>
      <point x="808" y="266" type="curve" smooth="yes"/>
      <point x="788" y="200"/>
      <point x="739" y="150"/>
      <point x="656" y="150" type="curve" smooth="yes"/>
      <point x="573" y="150"/>
      <point x="546" y="200"/>
      <point x="554" y="266" type="curve" smooth="yes"/>
      <point x="560" y="313"/>
      <point x="576" y="389"/>
      <point x="590" y="434" type="curve" smooth="yes"/>
      <point x="610" y="500"/>
      <point x="658" y="550"/>
      <point x="741" y="550" type="curve" smooth="yes"/>
      <point x="824" y="550"/>
      <point x="852" y="500"/>
      <point x="844" y="434" type="curve" smooth="yes"/>
      <point x="838" y="389"/>
      <point x="822" y="313"/>
    </contour>
  </outline>
</glyph>
<glyph name="afii10093" format="1">
  <advance width="846"/>
  <unicode hex="044B"/>
  <outline>
    <contour>
      <point x="650" y="493" type="curve" name="hr00"/>
      <point x="551" y="27" type="line" smooth="yes"/>
      <point x="548" y="12"/>
      <point x="558" y="0"/>
      <point x="573" y="0" type="curve" smooth="yes"/>
      <point x="699" y="0" type="line" smooth="yes"/>
      <point x="714" y="0"/>
      <point x="728" y="12"/>
      <point x="731" y="27" type="curve" smooth="yes"/>
      <point x="830" y="493" type="line" smooth="yes"/>
      <point x="833" y="508"/>
      <point x="824" y="520"/>
      <point x="809" y="520" type="curve" smooth="yes"/>
      <point x="683" y="520" type="line" smooth="yes"/>
      <point x="668" y="520"/>
      <point x="653" y="508"/>
    </contour>
    <contour>
      <point x="549" y="204" type="curve" smooth="yes"/>
      <point x="576" y="330"/>
      <point x="476" y="419"/>
      <point x="355" y="419" type="curve" smooth="yes"/>
      <point x="265" y="419" type="line"/>
      <point x="280" y="493" type="line" smooth="yes"/>
      <point x="283" y="508"/>
      <point x="274" y="520"/>
      <point x="259" y="520" type="curve" smooth="yes"/>
      <point x="133" y="520" type="line" smooth="yes"/>
      <point x="118" y="520"/>
      <point x="103" y="508"/>
      <point x="100" y="493" type="curve" smooth="yes"/>
      <point x="1" y="27" type="line" smooth="yes"/>
      <point x="-2" y="12"/>
      <point x="8" y="0"/>
      <point x="23" y="0" type="curve" smooth="yes"/>
      <point x="286" y="0" type="line" smooth="yes"/>
      <point x="437" y="0"/>
      <point x="522" y="78"/>
    </contour>
    <contour>
      <point x="232" y="264" type="line"/>
      <point x="314" y="264" type="line" smooth="yes"/>
      <point x="355" y="264"/>
      <point x="378" y="247"/>
      <point x="370" y="209" type="curve" smooth="yes"/>
      <point x="362" y="171"/>
      <point x="331" y="155"/>
      <point x="290" y="155" type="curve" smooth="yes"/>
      <point x="208" y="155" type="line"/>
    </contour>
  </outline>
</glyph>
<glyph name="afii10095" format="1">
  <advance width="602"/>
  <unicode hex="044D"/>
  <outline>
    <contour>
      <point x="255" y="296" type="curve"/>
      <point x="240" y="225" type="line" smooth="yes"/>
      <point x="237" y="210"/>
      <point x="247" y="198"/>
      <point x="262" y="198" type="curve" smooth="yes"/>
      <point x="358" y="198" type="line"/>
      <point x="338" y="165"/>
      <point x="303" y="145"/>
      <point x="261" y="145" type="curve" smooth="yes"/>
      <point x="217" y="145"/>
      <point x="200" y="158"/>
      <point x="190" y="181" type="curve" smooth="yes"/>
      <point x="185" y="192"/>
      <point x="180" y="201"/>
      <point x="165" y="201" type="curve" name="hr01" smooth="yes"/>
      <point x="34" y="201" type="line" smooth="yes"/>
      <point x="19" y="201"/>
      <point x="4" y="189"/>
      <point x="1" y="174" type="curve"/>
      <point x="-5" y="131"/>
      <point x="47" y="-10"/>
      <point x="238" y="-10" type="curve" smooth="yes"/>
      <point x="407" y="-10"/>
      <point x="512" y="69"/>
      <point x="547" y="210" type="curve"/>
      <point x="553" y="230"/>
      <point x="561" y="270"/>
      <point x="564" y="290" type="curve" smooth="yes"/>
      <point x="589" y="431"/>
      <point x="472" y="530"/>
      <point x="333" y="530" type="curve" smooth="yes"/>
      <point x="112" y="530"/>
      <point x="50" y="389"/>
      <point x="38" y="346" type="curve" smooth="yes"/>
      <point x="34" y="331"/>
      <point x="44" y="319"/>
      <point x="59" y="319" type="curve" smooth="yes"/>
      <point x="190" y="319" type="line" smooth="yes"/>
      <point x="205" y="319"/>
      <point x="214" y="328"/>
      <point x="224" y="339" type="curve" smooth="yes"/>
      <point x="243" y="362"/>
      <point x="266" y="375"/>
      <point x="310" y="375" type="curve" name="hr02" smooth="yes"/>
      <point x="352" y="375"/>
      <point x="378" y="355"/>
      <point x="383" y="323" type="curve"/>
      <point x="288" y="323" type="line" smooth="yes"/>
      <point x="273" y="323"/>
      <point x="259" y="311"/>
    </contour>
  </outline>
</glyph>
<glyph name="afii10106" format="1">
  <advance width="951"/>
  <unicode hex="0459"/>
  <outline>
    <contour>
      <point x="642" y="493" type="line"/>
      <point x="645" y="508"/>
      <point x="636" y="520"/>
      <point x="621" y="520" type="curve"/>
      <point x="195" y="520" type="line"/>
      <point x="180" y="520"/>
      <point x="165" y="508"/>
      <point x="162" y="493" type="curve"/>
      <point x="101" y="207" type="line"/>
      <point x="90" y="155"/>
      <point x="72" y="145"/>
      <point x="14" y="145" type="curve" smooth="yes"/>
      <point x="-1" y="145"/>
      <point x="-15" y="133"/>
      <point x="-18" y="118" type="curve"/>
      <point x="-40" y="17" type="line"/>
      <point x="-43" y="2"/>
      <point x="-34" y="-10"/>
      <point x="-19" y="-10" type="curve"/>
      <point x="7" y="-10" type="line"/>
      <point x="176" y="-10"/>
      <point x="250" y="60"/>
      <point x="280" y="202" type="curve"/>
      <point x="315" y="365" type="line"/>
      <point x="434" y="365" type="line"/>
      <point x="362" y="27" type="line"/>
      <point x="359" y="12"/>
      <point x="369" y="0"/>
      <point x="384" y="0" type="curve" name="hr01"/>
      <point x="647" y="0" type="line"/>
      <point x="798" y="0"/>
      <point x="883" y="78"/>
      <point x="910" y="204" type="curve" smooth="yes"/>
      <point x="937" y="330"/>
      <point x="837" y="419"/>
      <point x="716" y="419" type="curve"/>
      <point x="626" y="419" type="line"/>
    </contour>
    <contour>
      <point x="593" y="264" type="line"/>
      <point x="675" y="264" type="line"/>
      <point x="716" y="264"/>
      <point x="739" y="247"/>
      <point x="731" y="209" type="curve" smooth="yes"/>
      <point x="723" y="171"/>
      <point x="692" y="155"/>
      <point x="651" y="155" type="curve"/>
      <point x="569" y="155" type="line"/>
    </contour>
  </outline>
</glyph>
<glyph name="afii10107" format="1">
  <advance width="930"/>
  <unicode hex="045A"/>
  <outline>
    <contour>
      <point x="889" y="204" type="curve" smooth="yes"/>
      <point x="916" y="330"/>
      <point x="816" y="419"/>
      <point x="695" y="419" type="curve"/>
      <point x="605" y="419" type="line"/>
      <point x="620" y="493" type="line"/>
      <point x="623" y="508"/>
      <point x="614" y="520"/>
      <point x="599" y="520" type="curve"/>
      <point x="473" y="520" type="line"/>
      <point x="458" y="520"/>
      <point x="443" y="508"/>
      <point x="440" y="493" type="curve"/>
      <point x="406" y="335" type="line" name="hr01"/>
      <point x="247" y="335" type="line"/>
      <point x="280" y="493" type="line"/>
      <point x="283" y="508"/>
      <point x="274" y="520"/>
      <point x="259" y="520" type="curve"/>
      <point x="133" y="520" type="line"/>
      <point x="118" y="520"/>
      <point x="103" y="508"/>
      <point x="100" y="493" type="curve"/>
      <point x="1" y="27" type="line"/>
      <point x="-2" y="11"/>
      <point x="8" y="0"/>
      <point x="23" y="0" type="curve"/>
      <point x="149" y="0" type="line"/>
      <point x="164" y="0"/>
      <point x="178" y="12"/>
      <point x="181" y="27" type="curve"/>
      <point x="214" y="180" type="line"/>
      <point x="373" y="180" type="line"/>
      <point x="341" y="27" type="line"/>
      <point x="338" y="12"/>
      <point x="348" y="0"/>
      <point x="363" y="0" type="curve"/>
      <point x="626" y="0" type="line"/>
      <point x="777" y="0"/>
      <point x="862" y="78"/>
    </contour>
    <contour>
      <point x="572" y="264" type="line" name="hr02"/>
      <point x="654" y="264" type="line"/>
      <point x="695" y="264"/>
      <point x="718" y="247"/>
      <point x="710" y="209" type="curve" smooth="yes"/>
      <point x="702" y="171"/>
      <point x="671" y="155"/>
      <point x="630" y="155" type="curve"/>
      <point x="548" y="155" type="line"/>
    </contour>
  </outline>
</glyph>
<glyph name="afii10193" format="1">
  <advance width="590"/>
  <unicode hex="045F"/>
  <outline>
    <contour>
      <point x="443" y="0" type="line" name="hr00" smooth="yes"/>
      <point x="458" y="0"/>
      <point x="472" y="12"/>
      <point x="475" y="27" type="curve" smooth="yes"/>
      <point x="574" y="493" type="line" smooth="yes"/>
      <point x="577" y="508"/>
      <point x="568" y="520"/>
      <point x="553" y="520" type="curve" smooth="yes"/>
      <point x="427" y="520" type="line" smooth="yes"/>
      <point x="412" y="520"/>
      <point x="397" y="508"/>
      <point x="394" y="493" type="curve" smooth="yes"/>
      <point x="322" y="155" type="line"/>
      <point x="208" y="155" type="line"/>
      <point x="280" y="493" type="line" smooth="yes"/>
      <point x="283" y="508"/>
      <point x="274" y="520"/>
      <point x="259" y="520" type="curve" smooth="yes"/>
      <point x="133" y="520" type="line" smooth="yes"/>
      <point x="118" y="520"/>
      <point x="103" y="508"/>
      <point x="100" y="493" type="curve" smooth="yes"/>
      <point x="1" y="27" type="line" smooth="yes"/>
      <point x="-2" y="12"/>
      <point x="8" y="0"/>
      <point x="23" y="0" type="curve" smooth="yes"/>
      <point x="156" y="0" type="line"/>
      <point x="138" y="-83" type="line" smooth="yes"/>
      <point x="135" y="-98"/>
      <point x="144" y="-110"/>
      <point x="159" y="-110" type="curve" smooth="yes"/>
      <point x="260" y="-110" type="line" smooth="yes"/>
      <point x="275" y="-110"/>
      <point x="290" y="-98"/>
      <point x="293" y="-83" type="curve" smooth="yes"/>
      <point x="311" y="0" type="line"/>
    </contour>
  </outline>
</glyph>
<glyph name="afii10098" format="1">
  <advance width="520"/>
  <unicode hex="0491"/>
  <outline>
    <contour>
      <point x="133" y="520" type="line" name="hr00" smooth="yes"/>
      <point x="118" y="520"/>
      <point x="103" y="508"/>
      <point x="100" y="493" type="curve" smooth="yes"/>
      <point x="1" y="27" type="line" smooth="yes"/>
      <point x="-2" y="12"/>
      <point x="8" y="0"/>
      <point x="23" y="0" type="curve" smooth="yes"/>
      <point x="144" y="0" type="line" smooth="yes"/>
      <point x="159" y="0"/>
      <point x="173" y="12"/>
      <point x="176" y="27" type="curve" smooth="yes"/>
      <point x="249" y="370" type="line"/>
      <point x="494" y="370" type="line" smooth="yes"/>
      <point x="509" y="370"/>
      <point x="524" y="382"/>
      <point x="527" y="397" type="curve"/>
      <point x="571" y="603" type="line" smooth="yes"/>
      <point x="574" y="618"/>
      <point x="564" y="630"/>
      <point x="549" y="630" type="curve" smooth="yes"/>
      <point x="428" y="630" type="line" smooth="yes"/>
      <point x="413" y="630"/>
      <point x="399" y="618"/>
      <point x="396" y="603" type="curve"/>
      <point x="378" y="520" type="line"/>
    </contour>
  </outline>
</glyph>
<glyph name="segolhebrew" format="1">
  <advance width="100"/>
  <unicode hex="05B6"/>
  <outline>
    <contour>
      <point x="14" y="-170" type="line" smooth="yes"/>
      <point x="27" y="-170"/>
      <point x="38" y="-161"/>
      <point x="41" y="-148" type="curve" smooth="yes"/>
      <point x="52" y="-98" type="line" smooth="yes"/>
      <point x="54" y="-85"/>
      <point x="47" y="-76"/>
      <point x="34" y="-76" type="curve" smooth="yes"/>
      <point x="-23" y="-76" type="line" smooth="yes"/>
      <point x="-36" y="-76"/>
      <point x="-46" y="-85"/>
      <point x="-49" y="-98" type="curve" smooth="yes"/>
      <point x="-60" y="-148" type="line" smooth="yes"/>
      <point x="-63" y="-161"/>
      <point x="-55" y="-170"/>
      <point x="-42" y="-170" type="curve" smooth="yes"/>
    </contour>
    <contour>
      <point x="-80" y="-286" type="line" smooth="yes"/>
      <point x="-67" y="-286"/>
      <point x="-56" y="-277"/>
      <point x="-53" y="-264" type="curve" smooth="yes"/>
      <point x="-43" y="-215" type="line" smooth="yes"/>
      <point x="-40" y="-202"/>
      <point x="-47" y="-193"/>
      <point x="-60" y="-193" type="curve"/>
      <point x="-116" y="-193" type="line" smooth="yes"/>
      <point x="-129" y="-193"/>
      <point x="-140" y="-202"/>
      <point x="-143" y="-215" type="curve" smooth="yes"/>
      <point x="-153" y="-264" type="line" smooth="yes"/>
      <point x="-156" y="-277"/>
      <point x="-149" y="-286"/>
      <point x="-136" y="-286" type="curve" smooth="yes"/>
    </contour>
    <contour>
      <point x="-123" y="-170" type="line" smooth="yes"/>
      <point x="-110" y="-170"/>
      <point x="-100" y="-161"/>
      <point x="-97" y="-148" type="curve" smooth="yes"/>
      <point x="-86" y="-98" type="line" smooth="yes"/>
      <point x="-83" y="-85"/>
      <point x="-91" y="-76"/>
      <point x="-104" y="-76" type="curve" smooth="yes"/>
      <point x="-160" y="-76" type="line" smooth="yes"/>
      <point x="-173" y="-76"/>
      <point x="-184" y="-85"/>
      <point x="-186" y="-98" type="curve" smooth="yes"/>
      <point x="-197" y="-148" type="line" smooth="yes"/>
      <point x="-200" y="-161"/>
      <point x="-192" y="-170"/>
      <point x="-179" y="-170" type="curve" smooth="yes"/>
    </contour>
    <contour>
      <point x="-47" y="0" type="move" name="_bottom"/>
    </contour>
  </outline>
</glyph>
<glyph name="qubutshebrew" format="1">
  <advance width="100"/>
  <unicode hex="05BB"/>
  <outline>
    <contour>
      <point x="43" y="-293" type="line" smooth="yes"/>
      <point x="56" y="-293"/>
      <point x="67" y="-284"/>
      <point x="70" y="-271" type="curve" smooth="yes"/>
      <point x="80" y="-221" type="line" smooth="yes"/>
      <point x="83" y="-208"/>
      <point x="76" y="-199"/>
      <point x="63" y="-199" type="curve" smooth="yes"/>
      <point x="7" y="-199" type="line" smooth="yes"/>
      <point x="-6" y="-199"/>
      <point x="-17" y="-208"/>
      <point x="-20" y="-221" type="curve" smooth="yes"/>
      <point x="-30" y="-271" type="line" smooth="yes"/>
      <point x="-33" y="-284"/>
      <point x="-26" y="-293"/>
      <point x="-13" y="-293" type="curve" smooth="yes"/>
    </contour>
    <contour>
      <point x="-149" y="-170" type="line" smooth="yes"/>
      <point x="-136" y="-170"/>
      <point x="-126" y="-161"/>
      <point x="-123" y="-148" type="curve" smooth="yes"/>
      <point x="-112" y="-98" type="line" smooth="yes"/>
      <point x="-110" y="-85"/>
      <point x="-117" y="-76"/>
      <point x="-130" y="-76" type="curve" smooth="yes"/>
      <point x="-186" y="-76" type="line" smooth="yes"/>
      <point x="-199" y="-76"/>
      <point x="-210" y="-85"/>
      <point x="-212" y="-98" type="curve" smooth="yes"/>
      <point x="-223" y="-148" type="line" smooth="yes"/>
      <point x="-226" y="-161"/>
      <point x="-219" y="-170"/>
      <point x="-206" y="-170" type="curve" smooth="yes"/>
    </contour>
    <contour>
      <point x="-56" y="-232" type="line" smooth="yes"/>
      <point x="-43" y="-232"/>
      <point x="-32" y="-223"/>
      <point x="-29" y="-210" type="curve" smooth="yes"/>
      <point x="-19" y="-160" type="line" smooth="yes"/>
      <point x="-16" y="-147"/>
      <point x="-23" y="-138"/>
      <point x="-36" y="-138" type="curve" smooth="yes"/>
      <point x="-92" y="-138" type="line" smooth="yes"/>
      <point x="-105" y="-138"/>
      <point x="-116" y="-147"/>
      <point x="-119" y="-160" type="curve" smooth="yes"/>
      <point x="-130" y="-210" type="line" smooth="yes"/>
      <point x="-133" y="-223"/>
      <point x="-126" y="-232"/>
      <point x="-113" y="-232" type="curve" smooth="yes"/>
    </contour>
    <contour>
      <point x="-48" y="0" type="move" name="_bottom"/>
    </contour>
  </outline>
</glyph>
<glyph name="dageshhebrew" format="1">
  <advance width="111"/>
  <unicode hex="05BC"/>
  <outline>
    <contour>
      <point x="73" y="272" type="line" smooth="yes"/>
      <point x="86" y="272"/>
      <point x="97" y="281"/>
      <point x="99" y="294" type="curve" smooth="yes"/>
      <point x="110" y="343" type="line" smooth="yes"/>
      <point x="113" y="356"/>
      <point x="106" y="365"/>
      <point x="93" y="365" type="curve" smooth="yes"/>
      <point x="43" y="365" type="line" smooth="yes"/>
      <point x="30" y="365"/>
      <point x="19" y="356"/>
      <point x="17" y="343" type="curve" smooth="yes"/>
      <point x="6" y="294" type="line" smooth="yes"/>
      <point x="3" y="281"/>
      <point x="11" y="272"/>
      <point x="24" y="272" type="curve" smooth="yes"/>
    </contour>
    <contour>
      <point x="51" y="287" type="move" name="_center"/>
    </contour>
  </outline>
</glyph>
<glyph name="qamatsqatanhebrew" format="1">
  <advance width="100"/>
  <unicode hex="05C7"/>
  <outline>
    <contour>
      <point x="22" y="-165" type="line" smooth="yes"/>
      <point x="35" y="-165"/>
      <point x="45" y="-156"/>
      <point x="48" y="-143" type="curve" smooth="yes"/>
      <point x="58" y="-98" type="line" smooth="yes"/>
      <point x="61" y="-85"/>
      <point x="53" y="-76"/>
      <point x="40" y="-76" type="curve" smooth="yes"/>
      <point x="-168" y="-76" type="line" smooth="yes"/>
      <point x="-181" y="-76"/>
      <point x="-191" y="-85"/>
      <point x="-194" y="-98" type="curve" smooth="yes"/>
      <point x="-204" y="-143" type="line" smooth="yes"/>
      <point x="-207" y="-156"/>
      <point x="-199" y="-165"/>
      <point x="-186" y="-165" type="curve" smooth="yes"/>
    </contour>
    <contour>
      <point x="-86" y="-256" type="line" smooth="yes"/>
      <point x="-73" y="-256"/>
      <point x="-62" y="-247"/>
      <point x="-60" y="-234" type="curve" smooth="yes"/>
      <point x="-41" y="-145" type="line" smooth="yes"/>
      <point x="-36" y="-122"/>
      <point x="-45" y="-123"/>
      <point x="-58" y="-123" type="curve" smooth="yes"/>
      <point x="-92" y="-123" type="line" smooth="yes"/>
      <point x="-105" y="-123"/>
      <point x="-113" y="-122"/>
      <point x="-118" y="-145" type="curve" smooth="yes"/>
      <point x="-137" y="-234" type="line" smooth="yes"/>
      <point x="-140" y="-247"/>
      <point x="-133" y="-256"/>
      <point x="-120" y="-256" type="curve" smooth="yes"/>
    </contour>
    <contour>
      <point x="-47" y="0" type="move" name="_bottom"/>
    </contour>
  </outline>
</glyph>
<glyph name="bethebrew" format="1">
  <advance width="577"/>
  <unicode hex="05D1"/>
  <outline>
    <contour>
      <point x="477" y="0" type="line" smooth="yes"/>
      <point x="491" y="0"/>
      <point x="505" y="11"/>
      <point x="508" y="25" type="curve" smooth="yes"/>
      <point x="526" y="111" type="line" smooth="yes"/>
      <point x="529" y="125"/>
      <point x="520" y="136"/>
      <point x="506" y="136" type="curve" smooth="yes"/>
      <point x="471" y="136" type="line"/>
      <point x="511" y="321" type="line" smooth="yes"/>
      <point x="549" y="502"/>
      <point x="460" y="571"/>
      <point x="280" y="571" type="curve" smooth="yes"/>
      <point x="148" y="571" type="line" smooth="yes"/>
      <point x="134" y="571"/>
      <point x="120" y="560"/>
      <point x="117" y="546" type="curve" smooth="yes"/>
      <point x="99" y="460" type="line" smooth="yes"/>
      <point x="96" y="445"/>
      <point x="104" y="434"/>
      <point x="118" y="434" type="curve" smooth="yes"/>
      <point x="246" y="434" type="line" smooth="yes"/>
      <point x="323" y="434"/>
      <point x="350" y="394"/>
      <point x="335" y="321" type="curve" smooth="yes"/>
      <point x="295" y="136" type="line"/>
      <point x="45" y="136" type="line" smooth="yes"/>
      <point x="31" y="136"/>
      <point x="18" y="125"/>
      <point x="15" y="111" type="curve" smooth="yes"/>
      <point x="-4" y="25" type="line" smooth="yes"/>
      <point x="-7" y="11"/>
      <point x="2" y="0"/>
      <point x="16" y="0" type="curve" smooth="yes"/>
    </contour>
    <contour>
      <point x="189" y="260" type="move" name="center"/>
    </contour>
    <contour>
      <point x="351" y="520" type="move" name="top"/>
    </contour>
    <contour>
      <point x="-29" y="0" type="move" name="bottomleft"/>
    </contour>
    <contour>
      <point x="82" y="520" type="move" name="topleft"/>
    </contour>
    <contour>
      <point x="240" y="0" type="move" name="bottom"/>
    </contour>
  </outline>
</glyph>
<glyph name="hehebrew" format="1">
  <advance width="648"/>
  <unicode hex="05D4"/>
  <outline>
    <contour>
      <point x="520" y="0" type="line" smooth="yes"/>
      <point x="534" y="0"/>
      <point x="548" y="11"/>
      <point x="551" y="25" type="curve" smooth="yes"/>
      <point x="614" y="320" type="line" smooth="yes"/>
      <point x="651" y="495"/>
      <point x="570" y="571"/>
      <point x="390" y="571" type="curve" smooth="yes"/>
      <point x="157" y="571" type="line" smooth="yes"/>
      <point x="143" y="571"/>
      <point x="129" y="560"/>
      <point x="126" y="546" type="curve" smooth="yes"/>
      <point x="108" y="460" type="line" smooth="yes"/>
      <point x="105" y="446"/>
      <point x="113" y="435"/>
      <point x="128" y="435" type="curve" smooth="yes"/>
      <point x="356" y="435" type="line" smooth="yes"/>
      <point x="433" y="435"/>
      <point x="460" y="395"/>
      <point x="445" y="321" type="curve" smooth="yes"/>
      <point x="382" y="25" type="line" smooth="yes"/>
      <point x="379" y="10"/>
      <point x="387" y="0"/>
      <point x="402" y="0" type="curve" smooth="yes"/>
    </contour>
    <contour>
      <point x="154" y="0" type="line" smooth="yes"/>
      <point x="168" y="0"/>
      <point x="182" y="11"/>
      <point x="185" y="25" type="curve"/>
      <point x="247" y="317" type="line" smooth="yes"/>
      <point x="250" y="331"/>
      <point x="241" y="342"/>
      <point x="227" y="342" type="curve" smooth="yes"/>
      <point x="108" y="342" type="line" smooth="yes"/>
      <point x="94" y="342"/>
      <point x="81" y="331"/>
      <point x="78" y="317" type="curve" smooth="yes"/>
      <point x="16" y="25" type="line" smooth="yes"/>
      <point x="13" y="11"/>
      <point x="21" y="0"/>
      <point x="36" y="0" type="curve" smooth="yes"/>
    </contour>
    <contour>
      <point x="330" y="260" type="move" name="center"/>
    </contour>
    <contour>
      <point x="386" y="520" type="move" name="top"/>
    </contour>
    <contour>
      <point x="-29" y="0" type="move" name="bottomleft"/>
    </contour>
    <contour>
      <point x="82" y="520" type="move" name="topleft"/>
    </contour>
    <contour>
      <point x="275" y="0" type="move" name="bottom"/>
    </contour>
  </outline>
</glyph>
<glyph name="zayinhebrew" format="1">
  <advance width="417"/>
  <unicode hex="05D6"/>
  <outline>
    <contour>
      <point x="207" y="0" type="line" smooth="yes"/>
      <point x="220" y="0"/>
      <point x="238" y="9"/>
      <point x="241" y="22" type="curve"/>
      <point x="302" y="313" type="line" smooth="yes"/>
      <point x="320" y="393"/>
      <point x="355" y="456"/>
      <point x="389" y="456" type="curve"/>
      <point x="223" y="456" type="line"/>
      <point x="182" y="456"/>
      <point x="155" y="410"/>
      <point x="137" y="324" type="curve" smooth="yes"/>
      <point x="73" y="22" type="line" smooth="yes"/>
      <point x="70" y="9"/>
      <point x="77" y="0"/>
      <point x="90" y="0" type="curve" smooth="yes"/>
    </contour>
    <contour>
      <point x="399" y="435" type="line" smooth="yes"/>
      <point x="415" y="435"/>
      <point x="427" y="447"/>
      <point x="430" y="460" type="curve" smooth="yes"/>
      <point x="448" y="546" type="line" smooth="yes"/>
      <point x="451" y="560"/>
      <point x="443" y="571"/>
      <point x="429" y="571" type="curve" smooth="yes"/>
      <point x="135" y="571" type="line" smooth="yes"/>
      <point x="121" y="571"/>
      <point x="107" y="560"/>
      <point x="104" y="546" type="curve" smooth="yes"/>
      <point x="86" y="460" type="line" smooth="yes"/>
      <point x="83" y="446"/>
      <point x="91" y="435"/>
      <point x="106" y="435" type="curve" smooth="yes"/>
    </contour>
    <contour>
      <point x="50" y="260" type="move" name="center"/>
    </contour>
    <contour>
      <point x="302" y="520" type="move" name="top"/>
    </contour>
    <contour>
      <point x="-5" y="0" type="move" name="bottomleft"/>
    </contour>
    <contour>
      <point x="106" y="520" type="move" name="topleft"/>
    </contour>
    <contour>
      <point x="148" y="0" type="move" name="bottom"/>
    </contour>
  </outline>
</glyph>
<glyph name="hethebrew" format="1">
  <advance width="652"/>
  <unicode hex="05D7"/>
  <outline>
    <contour>
      <point x="154" y="0" type="line" smooth="yes"/>
      <point x="168" y="0"/>
      <point x="182" y="11"/>
      <point x="185" y="25" type="curve" smooth="yes"/>
      <point x="272" y="435" type="line"/>
      <point x="360" y="435" type="line" smooth="yes"/>
      <point x="437" y="435"/>
      <point x="464" y="395"/>
      <point x="449" y="321" type="curve" smooth="yes"/>
      <point x="386" y="25" type="line" smooth="yes"/>
      <point x="383" y="10"/>
      <point x="391" y="0"/>
      <point x="406" y="0" type="curve" smooth="yes"/>
      <point x="524" y="0" type="line" smooth="yes"/>
      <point x="538" y="0"/>
      <point x="552" y="11"/>
      <point x="555" y="25" type="curve" smooth="yes"/>
      <point x="618" y="320" type="line" smooth="yes"/>
      <point x="656" y="503"/>
      <point x="578" y="571"/>
      <point x="394" y="571" type="curve" smooth="yes"/>
      <point x="158" y="571" type="line" smooth="yes"/>
      <point x="143" y="571"/>
      <point x="130" y="560"/>
      <point x="127" y="546" type="curve" smooth="yes"/>
      <point x="16" y="25" type="line" smooth="yes"/>
      <point x="13" y="11"/>
      <point x="21" y="0"/>
      <point x="36" y="0" type="curve" smooth="yes"/>
    </contour>
    <contour>
      <point x="332" y="260" type="move" name="center"/>
    </contour>
    <contour>
      <point x="388" y="520" type="move" name="top"/>
    </contour>
    <contour>
      <point x="-29" y="0" type="move" name="bottomleft"/>
    </contour>
    <contour>
      <point x="82" y="520" type="move" name="topleft"/>
    </contour>
    <contour>
      <point x="277" y="0" type="move" name="bottom"/>
    </contour>
  </outline>
</glyph>
<glyph name="lamedhebrew" format="1">
  <advance width="536"/>
  <unicode hex="05DC"/>
  <outline>
    <contour>
      <point x="186" y="-1" type="line" smooth="yes"/>
      <point x="329" y="37"/>
      <point x="479" y="139"/>
      <point x="517" y="320" type="curve" smooth="yes"/>
      <point x="551" y="482"/>
      <point x="506" y="571"/>
      <point x="327" y="571" type="curve" smooth="yes"/>
      <point x="270" y="571" type="line"/>
      <point x="257" y="571"/>
      <point x="242" y="560"/>
      <point x="239" y="547" type="curve"/>
      <point x="219" y="454" type="line"/>
      <point x="216" y="439"/>
      <point x="225" y="428"/>
      <point x="239" y="428" type="curve"/>
      <point x="261" y="428" type="line"/>
      <point x="342" y="428"/>
      <point x="359" y="397"/>
      <point x="342" y="315" type="curve" smooth="yes"/>
      <point x="322" y="220"/>
      <point x="268" y="181"/>
      <point x="209" y="160" type="curve" smooth="yes"/>
      <point x="175" y="147" type="line" smooth="yes"/>
      <point x="160" y="141"/>
      <point x="146" y="128"/>
      <point x="143" y="115" type="curve" smooth="yes"/>
      <point x="122" y="14" type="line" smooth="yes"/>
      <point x="119" y="-1"/>
      <point x="129" y="-16"/>
      <point x="143" y="-13" type="curve" smooth="yes"/>
    </contour>
    <contour>
      <point x="307" y="571" type="line"/>
      <point x="266" y="571" type="line"/>
      <point x="289" y="685" type="line" smooth="yes"/>
      <point x="293" y="699"/>
      <point x="284" y="710"/>
      <point x="269" y="710" type="curve" smooth="yes"/>
      <point x="162" y="710" type="line" smooth="yes"/>
      <point x="147" y="710"/>
      <point x="134" y="699"/>
      <point x="131" y="685" type="curve" smooth="yes"/>
      <point x="82" y="454" type="line" smooth="yes"/>
      <point x="79" y="439"/>
      <point x="87" y="429"/>
      <point x="102" y="429" type="curve" smooth="yes"/>
      <point x="275" y="428" type="line"/>
    </contour>
    <contour>
      <point x="182" y="260" type="move" name="center"/>
    </contour>
    <contour>
      <point x="323" y="520" type="move" name="top"/>
    </contour>
    <contour>
      <point x="-11" y="0" type="move" name="bottomleft"/>
    </contour>
    <contour>
      <point x="48" y="520" type="move" name="topleft"/>
    </contour>
    <contour>
      <point x="196" y="0" type="move" name="bottom"/>
    </contour>
  </outline>
</glyph>
<glyph name="finalmemhebrew" format="1">
  <advance width="635"/>
  <unicode hex="05DD"/>
  <outline>
    <contour>
      <point x="506" y="0" type="line" smooth="yes"/>
      <point x="521" y="0"/>
      <point x="535" y="12"/>
      <point x="538" y="26" type="curve" smooth="yes"/>
      <point x="602" y="326" type="line" smooth="yes"/>
      <point x="640" y="504"/>
      <point x="561" y="571"/>
      <point x="385" y="571" type="curve" smooth="yes"/>
      <point x="158" y="571" type="line" smooth="yes"/>
      <point x="143" y="571"/>
      <point x="130" y="560"/>
      <point x="127" y="546" type="curve" smooth="yes"/>
      <point x="16" y="25" type="line" smooth="yes"/>
      <point x="13" y="11"/>
      <point x="21" y="0"/>
      <point x="36" y="0" type="curve" smooth="yes"/>
    </contour>
    <contour>
      <point x="254" y="435" type="line"/>
      <point x="350" y="435" type="line" smooth="yes"/>
      <point x="428" y="435"/>
      <point x="455" y="395"/>
      <point x="439" y="321" type="curve" smooth="yes"/>
      <point x="400" y="136" type="line"/>
      <point x="191" y="136" type="line"/>
    </contour>
    <contour>
      <point x="324" y="260" type="move" name="center"/>
    </contour>
    <contour>
      <point x="380" y="520" type="move" name="top"/>
    </contour>
    <contour>
      <point x="-29" y="0" type="move" name="bottomleft"/>
    </contour>
    <contour>
      <point x="82" y="520" type="move" name="topleft"/>
    </contour>
    <contour>
      <point x="269" y="0" type="move" name="bottom"/>
    </contour>
  </outline>
</glyph>
<glyph name="nunhebrew" format="1">
  <advance width="444"/>
  <unicode hex="05E0"/>
  <outline>
    <contour>
      <point x="313" y="0" type="line" smooth="yes"/>
      <point x="328" y="0"/>
      <point x="341" y="9"/>
      <point x="344" y="24" type="curve" smooth="yes"/>
      <point x="368" y="136" type="line"/>
      <point x="43" y="136" type="line" smooth="yes"/>
      <point x="28" y="136"/>
      <point x="15" y="125"/>
      <point x="12" y="111" type="curve" smooth="yes"/>
      <point x="-6" y="25" type="line" smooth="yes"/>
      <point x="-9" y="11"/>
      <point x="-1" y="0"/>
      <point x="14" y="0" type="curve" smooth="yes"/>
    </contour>
    <contour>
      <point x="335" y="0" type="line" smooth="yes"/>
      <point x="349" y="0"/>
      <point x="364" y="11"/>
      <point x="366" y="25" type="curve" smooth="yes"/>
      <point x="417" y="330" type="line" smooth="yes"/>
      <point x="446" y="501"/>
      <point x="393" y="578"/>
      <point x="216" y="578" type="curve" smooth="yes"/>
      <point x="161" y="578" type="line" smooth="yes"/>
      <point x="147" y="578"/>
      <point x="133" y="567"/>
      <point x="130" y="552" type="curve" smooth="yes"/>
      <point x="113" y="468" type="line" smooth="yes"/>
      <point x="109" y="454"/>
      <point x="118" y="443"/>
      <point x="132" y="443" type="curve" smooth="yes"/>
      <point x="183" y="443" type="line" smooth="yes"/>
      <point x="247" y="443"/>
      <point x="254" y="405"/>
      <point x="242" y="333" type="curve" smooth="yes"/>
      <point x="190" y="25" type="line"/>
      <point x="188" y="11"/>
      <point x="196" y="0"/>
      <point x="210" y="0" type="curve" smooth="yes"/>
    </contour>
    <contour>
      <point x="139" y="260" type="move" name="center"/>
    </contour>
    <contour>
      <point x="280" y="520" type="move" name="top"/>
    </contour>
    <contour>
      <point x="-29" y="0" type="move" name="bottomleft"/>
    </contour>
    <contour>
      <point x="82" y="520" type="move" name="topleft"/>
    </contour>
    <contour>
      <point x="173" y="0" type="move" name="bottom"/>
    </contour>
  </outline>
</glyph>
<glyph name="samekhhebrew" format="1">
  <advance width="650"/>
  <unicode hex="05E1"/>
  <outline>
    <contour>
      <point x="480" y="-10"/>
      <point x="571" y="83"/>
      <point x="610" y="235" type="curve" smooth="yes"/>
      <point x="616" y="255"/>
      <point x="627" y="310"/>
      <point x="631" y="330" type="curve" smooth="yes"/>
      <point x="655" y="479"/>
      <point x="608" y="571"/>
      <point x="408" y="571" type="curve"/>
      <point x="152" y="571" type="line" smooth="yes"/>
      <point x="138" y="571"/>
      <point x="124" y="560"/>
      <point x="121" y="546" type="curve" smooth="yes"/>
      <point x="56" y="241" type="line" smooth="yes"/>
      <point x="23" y="85"/>
      <point x="90" y="-10"/>
      <point x="274" y="-10" type="curve" smooth="yes"/>
    </contour>
    <contour>
      <point x="230" y="133"/>
      <point x="195" y="167"/>
      <point x="211" y="244" type="curve" smooth="yes"/>
      <point x="251" y="435" type="line"/>
      <point x="372" y="435" type="line" smooth="yes"/>
      <point x="453" y="435"/>
      <point x="479" y="398"/>
      <point x="467" y="325" type="curve" smooth="yes"/>
      <point x="464" y="305"/>
      <point x="454" y="260"/>
      <point x="449" y="240" type="curve" smooth="yes"/>
      <point x="430" y="164"/>
      <point x="395" y="133"/>
      <point x="303" y="133" type="curve" smooth="yes"/>
    </contour>
    <contour>
      <point x="327" y="260" type="move" name="center"/>
    </contour>
    <contour>
      <point x="374" y="520" type="move" name="top"/>
    </contour>
    <contour>
      <point x="-29" y="0" type="move" name="bottomleft"/>
    </contour>
    <contour>
      <point x="82" y="520" type="move" name="topleft"/>
    </contour>
    <contour>
      <point x="263" y="0" type="move" name="bottom"/>
    </contour>
  </outline>
</glyph>
<glyph name="finalpehebrew" format="1">
  <advance width="583"/>
  <unicode hex="05E3"/>
  <outline>
    <contour>
      <point x="294" y="430" type="line" smooth="yes"/>
      <point x="371" y="430"/>
      <point x="398" y="388"/>
      <point x="385" y="315" type="curve"/>
      <point x="297" y="-99" type="line"/>
      <point x="294" y="-113"/>
      <point x="303" y="-124"/>
      <point x="317" y="-124" type="curve" smooth="yes"/>
      <point x="429" y="-124" type="line" smooth="yes"/>
      <point x="444" y="-124"/>
      <point x="457" y="-113"/>
      <point x="460" y="-99" type="curve"/>
      <point x="547" y="314" type="line"/>
      <point x="574" y="469"/>
      <point x="518" y="571"/>
      <point x="340" y="571" type="curve" smooth="yes"/>
      <point x="144" y="571" type="line" smooth="yes"/>
      <point x="129" y="571"/>
      <point x="116" y="561"/>
      <point x="113" y="546" type="curve" smooth="yes"/>
      <point x="81" y="396" type="line"/>
      <point x="57" y="284"/>
      <point x="96" y="218"/>
      <point x="161" y="208" type="curve" smooth="yes"/>
      <point x="211" y="201" type="line" smooth="yes"/>
      <point x="226" y="199"/>
      <point x="248" y="209"/>
      <point x="251" y="225" type="curve" smooth="yes"/>
      <point x="263" y="283" type="line" smooth="yes"/>
      <point x="266" y="297"/>
      <point x="263" y="309"/>
      <point x="253" y="314" type="curve" smooth="yes"/>
      <point x="227" y="323" type="line" smooth="yes"/>
      <point x="209" y="329"/>
      <point x="209" y="354"/>
      <point x="216" y="384" type="curve"/>
      <point x="225" y="429" type="line"/>
    </contour>
    <contour>
      <point x="308" y="245" type="move" name="center"/>
    </contour>
    <contour>
      <point x="346" y="520" type="move" name="top"/>
    </contour>
    <contour>
      <point x="-29" y="0" type="move" name="bottomleft"/>
    </contour>
    <contour>
      <point x="82" y="520" type="move" name="topleft"/>
    </contour>
    <contour>
      <point x="235" y="0" type="move" name="bottom"/>
    </contour>
  </outline>
</glyph>
<glyph name="tsadihebrew" format="1">
  <advance width="590"/>
  <unicode hex="05E6"/>
  <outline>
    <contour>
      <point x="441" y="0" type="line" smooth="yes"/>
      <point x="456" y="0"/>
      <point x="469" y="11"/>
      <point x="472" y="25" type="curve" smooth="yes"/>
      <point x="489" y="106" type="line" smooth="yes"/>
      <point x="493" y="122"/>
      <point x="487" y="131"/>
      <point x="483" y="139" type="curve" smooth="yes"/>
      <point x="270" y="553" type="line" smooth="yes"/>
      <point x="267" y="559"/>
      <point x="261" y="571"/>
      <point x="241" y="571" type="curve" smooth="yes"/>
      <point x="117" y="571" type="line" smooth="yes"/>
      <point x="106" y="571"/>
      <point x="94" y="563"/>
      <point x="91" y="551" type="curve" smooth="yes"/>
      <point x="90" y="545"/>
      <point x="91" y="540"/>
      <point x="93" y="535" type="curve" smooth="yes"/>
      <point x="300" y="139" type="line"/>
      <point x="65" y="139" type="line" smooth="yes"/>
      <point x="51" y="139"/>
      <point x="38" y="128"/>
      <point x="35" y="114" type="curve" smooth="yes"/>
      <point x="16" y="25" type="line" smooth="yes"/>
      <point x="13" y="11"/>
      <point x="21" y="0"/>
      <point x="36" y="0" type="curve" smooth="yes"/>
    </contour>
    <contour>
      <point x="508" y="285"/>
      <point x="570" y="365"/>
      <point x="590" y="458" type="curve" smooth="yes"/>
      <point x="608" y="544" type="line" smooth="yes"/>
      <point x="612" y="559"/>
      <point x="604" y="571"/>
      <point x="589" y="571" type="curve" smooth="yes"/>
      <point x="484" y="571" type="line" smooth="yes"/>
      <point x="470" y="571"/>
      <point x="456" y="560"/>
      <point x="453" y="544" type="curve" smooth="yes"/>
      <point x="441" y="488" type="line" smooth="yes"/>
      <point x="428" y="428"/>
      <point x="402" y="379"/>
      <point x="351" y="350" type="curve"/>
      <point x="411" y="237" type="line"/>
    </contour>
    <contour>
      <point x="128" y="225" type="move" name="center"/>
    </contour>
    <contour>
      <point x="351" y="520" type="move" name="top"/>
    </contour>
    <contour>
      <point x="-29" y="0" type="move" name="bottomleft"/>
    </contour>
    <contour>
      <point x="82" y="520" type="move" name="topleft"/>
    </contour>
    <contour>
      <point x="240" y="0" type="move" name="bottom"/>
    </contour>
  </outline>
</glyph>
<glyph name="qofhebrew" format="1">
  <advance width="667"/>
  <unicode hex="05E7"/>
  <outline>
    <contour>
      <point x="110" y="-191" type="line" smooth="yes"/>
      <point x="125" y="-191"/>
      <point x="138" y="-180"/>
      <point x="140" y="-166" type="curve"/>
      <point x="243" y="317" type="line" smooth="yes"/>
      <point x="246" y="331"/>
      <point x="237" y="342"/>
      <point x="223" y="342" type="curve" smooth="yes"/>
      <point x="109" y="342" type="line" smooth="yes"/>
      <point x="94" y="342"/>
      <point x="81" y="331"/>
      <point x="78" y="317" type="curve" smooth="yes"/>
      <point x="-25" y="-166" type="line" smooth="yes"/>
      <point x="-27" y="-180"/>
      <point x="-18" y="-191"/>
      <point x="-4" y="-191" type="curve" smooth="yes"/>
    </contour>
    <contour>
      <point x="318" y="-1" type="line" smooth="yes"/>
      <point x="461" y="37"/>
      <point x="611" y="139"/>
      <point x="649" y="320" type="curve" smooth="yes"/>
      <point x="683" y="482"/>
      <point x="638" y="571"/>
      <point x="459" y="571" type="curve" smooth="yes"/>
      <point x="158" y="571" type="line"/>
      <point x="145" y="571"/>
      <point x="130" y="560"/>
      <point x="127" y="547" type="curve"/>
      <point x="107" y="454" type="line"/>
      <point x="104" y="439"/>
      <point x="113" y="428"/>
      <point x="127" y="428" type="curve"/>
      <point x="393" y="428" type="line"/>
      <point x="474" y="428"/>
      <point x="491" y="397"/>
      <point x="474" y="315" type="curve" smooth="yes"/>
      <point x="454" y="220"/>
      <point x="400" y="181"/>
      <point x="341" y="160" type="curve" smooth="yes"/>
      <point x="307" y="147" type="line" smooth="yes"/>
      <point x="292" y="141"/>
      <point x="278" y="128"/>
      <point x="275" y="115" type="curve" smooth="yes"/>
      <point x="254" y="14" type="line" smooth="yes"/>
      <point x="251" y="-1"/>
      <point x="261" y="-16"/>
      <point x="275" y="-13" type="curve" smooth="yes"/>
    </contour>
    <contour>
      <point x="330" y="260" type="move" name="center"/>
    </contour>
    <contour>
      <point x="386" y="520" type="move" name="top"/>
    </contour>
    <contour>
      <point x="-29" y="0" type="move" name="bottomleft"/>
    </contour>
    <contour>
      <point x="82" y="520" type="move" name="topleft"/>
    </contour>
    <contour>
      <point x="381" y="0" type="move" name="bottom"/>
    </contour>
  </outline>
</glyph>
<glyph name="reshhebrew" format="1">
  <advance width="553"/>
  <unicode hex="05E8"/>
  <outline>
    <contour>
      <point x="425" y="0" type="line" smooth="yes"/>
      <point x="439" y="0"/>
      <point x="453" y="11"/>
      <point x="456" y="25" type="curve" smooth="yes"/>
      <point x="520" y="327" type="line" smooth="yes"/>
      <point x="558" y="505"/>
      <point x="476" y="571"/>
      <point x="296" y="571" type="curve" smooth="yes"/>
      <point x="138" y="571" type="line"/>
      <point x="124" y="571"/>
      <point x="110" y="560"/>
      <point x="107" y="546" type="curve" smooth="yes"/>
      <point x="89" y="460" type="line" smooth="yes"/>
      <point x="86" y="446"/>
      <point x="94" y="435"/>
      <point x="109" y="435" type="curve" smooth="yes"/>
      <point x="261" y="435" type="line" smooth="yes"/>
      <point x="338" y="435"/>
      <point x="365" y="395"/>
      <point x="350" y="321" type="curve" smooth="yes"/>
      <point x="287" y="25" type="line" smooth="yes"/>
      <point x="284" y="10"/>
      <point x="292" y="0"/>
      <point x="307" y="0" type="curve" smooth="yes"/>
    </contour>
    <contour>
      <point x="209" y="260" type="move" name="center"/>
    </contour>
    <contour>
      <point x="352" y="520" type="move" name="top"/>
    </contour>
    <contour>
      <point x="-2" y="0" type="move" name="bottomleft"/>
    </contour>
    <contour>
      <point x="109" y="520" type="move" name="topleft"/>
    </contour>
    <contour>
      <point x="361" y="0" type="move" name="bottom"/>
    </contour>
  </outline>
</glyph>
<glyph name="emdash" format="1">
  <advance width="761"/>
  <unicode hex="2014"/>
  <outline>
    <contour>
      <point x="662" y="223" type="line" name="hr00" smooth="yes"/>
      <point x="677" y="223"/>
      <point x="692" y="235"/>
      <point x="695" y="250" type="curve" smooth="yes"/>
      <point x="716" y="351" type="line" smooth="yes"/>
      <point x="719" y="366"/>
      <point x="710" y="378"/>
      <point x="695" y="378" type="curve" smooth="yes"/>
      <point x="100" y="378" type="line"/>
      <point x="85" y="378"/>
      <point x="70" y="366"/>
      <point x="67" y="351" type="curve" smooth="yes"/>
      <point x="46" y="250" type="line" smooth="yes"/>
      <point x="43" y="235"/>
      <point x="52" y="223"/>
      <point x="67" y="223" type="curve"/>
    </contour>
  </outline>
</glyph>
<glyph name="quotedblleft" format="1">
  <advance width="519"/>
  <unicode hex="201C"/>
  <outline>
    <contour>
      <point x="566" y="686" type="line" name="hr00" smooth="yes"/>
      <point x="571" y="699"/>
      <point x="561" y="710"/>
      <point x="549" y="710" type="curve" smooth="yes"/>
      <point x="474" y="710" type="line" smooth="yes"/>
      <point x="448" y="710"/>
      <point x="432" y="691"/>
      <point x="424" y="678" type="curve" smooth="yes"/>
      <point x="304" y="479" type="line" smooth="yes"/>
      <point x="296" y="465"/>
      <point x="304" y="450"/>
      <point x="319" y="450" type="curve" smooth="yes"/>
      <point x="442" y="450" type="line" smooth="yes"/>
      <point x="469" y="450"/>
      <point x="486" y="471"/>
      <point x="493" y="489" type="curve" smooth="yes"/>
    </contour>
    <contour>
      <point x="331" y="686" type="line" smooth="yes"/>
      <point x="336" y="699"/>
      <point x="326" y="710"/>
      <point x="314" y="710" type="curve" smooth="yes"/>
      <point x="239" y="710" type="line" smooth="yes"/>
      <point x="213" y="710"/>
      <point x="197" y="691"/>
      <point x="189" y="678" type="curve" smooth="yes"/>
      <point x="69" y="479" type="line" smooth="yes"/>
      <point x="61" y="465"/>
      <point x="69" y="450"/>
      <point x="84" y="450" type="curve" smooth="yes"/>
      <point x="207" y="450" type="line" smooth="yes"/>
      <point x="234" y="450"/>
      <point x="251" y="471"/>
      <point x="258" y="489" type="curve" smooth="yes"/>
    </contour>
  </outline>
</glyph>
<glyph name="bullet" format="1">
  <advance width="392"/>
  <unicode hex="2022"/>
  <outline>
    <contour>
      <point x="65" y="300" type="curve" name="hr00" smooth="yes"/>
      <point x="50" y="228"/>
      <point x="96" y="170"/>
      <point x="168" y="170" type="curve" smooth="yes"/>
      <point x="240" y="170"/>
      <point x="310" y="228"/>
      <point x="325" y="300" type="curve" smooth="yes"/>
      <point x="341" y="372"/>
      <point x="295" y="430"/>
      <point x="223" y="430" type="curve" smooth="yes"/>
      <point x="151" y="430"/>
      <point x="81" y="372"/>
    </contour>
  </outline>
</glyph>
<glyph name="parenleftinferior" format="1">
  <advance width="265"/>
  <unicode hex="208D"/>
  <outline>
    <contour>
      <point x="120" y="-124" type="curve" name="hr00" smooth="yes"/>
      <point x="73" y="-111"/>
      <point x="62" y="-65"/>
      <point x="78" y="11" type="curve" smooth="yes"/>
      <point x="94" y="87"/>
      <point x="124" y="131"/>
      <point x="177" y="144" type="curve" smooth="yes"/>
      <point x="192" y="148"/>
      <point x="205" y="150"/>
      <point x="209" y="165" type="curve" smooth="yes"/>
      <point x="221" y="223" type="line" smooth="yes"/>
      <point x="224" y="238"/>
      <point x="217" y="245"/>
      <point x="202" y="245" type="curve" smooth="yes"/>
      <point x="95" y="245"/>
      <point x="8" y="199"/>
      <point x="-32" y="11" type="curve" smooth="yes"/>
      <point x="-72" y="-177"/>
      <point x="55" y="-225"/>
      <point x="102" y="-225" type="curve" smooth="yes"/>
      <point x="117" y="-225"/>
      <point x="127" y="-218"/>
      <point x="130" y="-203" type="curve" smooth="yes"/>
      <point x="143" y="-145" type="line" smooth="yes"/>
      <point x="146" y="-130"/>
      <point x="133" y="-128"/>
    </contour>
  </outline>
</glyph>
<glyph name="parenrightinferior" format="1">
  <advance width="265"/>
  <unicode hex="208E"/>
  <outline>
    <contour>
      <point x="-35" y="-124" type="curve" name="hr00" smooth="yes"/>
      <point x="-50" y="-128"/>
      <point x="-63" y="-130"/>
      <point x="-65" y="-145" type="curve" smooth="yes"/>
      <point x="-78" y="-203" type="line" smooth="yes"/>
      <point x="-81" y="-218"/>
      <point x="-73" y="-225"/>
      <point x="-59" y="-225" type="curve" smooth="yes"/>
      <point x="58" y="-225"/>
      <point x="135" y="-177"/>
      <point x="175" y="11" type="curve" smooth="yes"/>
      <point x="215" y="199"/>
      <point x="88" y="245"/>
      <point x="41" y="245" type="curve" smooth="yes"/>
      <point x="26" y="245"/>
      <point x="15" y="238"/>
      <point x="12" y="223" type="curve" smooth="yes"/>
      <point x="0" y="165" type="line" smooth="yes"/>
      <point x="-4" y="150"/>
      <point x="9" y="148"/>
      <point x="22" y="144" type="curve" smooth="yes"/>
      <point x="69" y="131"/>
      <point x="81" y="87"/>
      <point x="65" y="11" type="curve" smooth="yes"/>
      <point x="49" y="-65"/>
      <point x="18" y="-111"/>
    </contour>
  </outline>
</glyph>
<glyph name="estimated" format="1">
  <advance width="662"/>
  <unicode hex="212E"/>
  <outline>
    <contour>
      <point x="230" y="243" type="curve"/>
      <point x="582" y="243" type="line" smooth="yes"/>
      <point x="597" y="243"/>
      <point x="612" y="255"/>
      <point x="615" y="270" type="curve" smooth="yes"/>
      <point x="621" y="298" type="line" smooth="yes"/>
      <point x="658" y="475"/>
      <point x="576" y="610"/>
      <point x="400" y="610" type="curve" smooth="yes"/>
      <point x="217" y="610"/>
      <point x="92" y="511"/>
      <point x="46" y="295" type="curve" smooth="yes"/>
      <point x="2" y="89"/>
      <point x="133" y="-10"/>
      <point x="278" y="-10" type="curve" smooth="yes"/>
      <point x="483" y="-10"/>
      <point x="568" y="99"/>
      <point x="581" y="150" type="curve" smooth="yes"/>
      <point x="585" y="163"/>
      <point x="577" y="172"/>
      <point x="564" y="172" type="curve" smooth="yes"/>
      <point x="420" y="172" type="line" smooth="yes"/>
      <point x="404" y="172"/>
      <point x="401" y="170"/>
      <point x="384" y="158" type="curve" smooth="yes"/>
      <point x="365" y="144"/>
      <point x="339" y="125"/>
      <point x="297" y="125" type="curve" name="hr01" smooth="yes"/>
      <point x="251" y="125"/>
      <point x="214" y="157"/>
    </contour>
    <contour>
      <point x="371" y="475" type="curve" smooth="yes"/>
      <point x="436" y="475"/>
      <point x="449" y="415"/>
      <point x="440" y="364" type="curve"/>
      <point x="256" y="364" type="line"/>
      <point x="270" y="420"/>
      <point x="305" y="475"/>
    </contour>
  </outline>
</glyph>
<glyph name="summation" format="1">
  <advance width="635"/>
  <unicode hex="2211"/>
  <outline>
    <contour>
      <point x="573" y="262" type="line" name="hr00" smooth="yes"/>
      <point x="577" y="283"/>
      <point x="562" y="304"/>
      <point x="546" y="321" type="curve" smooth="yes"/>
      <point x="329" y="545" type="line"/>
      <point x="606" y="545" type="line" smooth="yes"/>
      <point x="621" y="545"/>
      <point x="636" y="557"/>
      <point x="639" y="572" type="curve" smooth="yes"/>
      <point x="661" y="673" type="line" smooth="yes"/>
      <point x="664" y="688"/>
      <point x="654" y="700"/>
      <point x="639" y="700" type="curve" smooth="yes"/>
      <point x="155" y="700" type="line" smooth="yes"/>
      <point x="140" y="700"/>
      <point x="126" y="688"/>
      <point x="123" y="673" type="curve" smooth="yes"/>
      <point x="101" y="572" type="line" smooth="yes"/>
      <point x="97" y="553"/>
      <point x="102" y="539"/>
      <point x="110" y="530" type="curve" smooth="yes"/>
      <point x="362" y="264" type="line"/>
      <point x="-9" y="-31" type="line" smooth="yes"/>
      <point x="-21" y="-40"/>
      <point x="-32" y="-54"/>
      <point x="-36" y="-73" type="curve" smooth="yes"/>
      <point x="-57" y="-174" type="line" smooth="yes"/>
      <point x="-60" y="-189"/>
      <point x="-51" y="-201"/>
      <point x="-36" y="-201" type="curve" smooth="yes"/>
      <point x="448" y="-201" type="line" smooth="yes"/>
      <point x="463" y="-201"/>
      <point x="478" y="-189"/>
      <point x="481" y="-174" type="curve" smooth="yes"/>
      <point x="502" y="-73" type="line" smooth="yes"/>
      <point x="505" y="-58"/>
      <point x="496" y="-46"/>
      <point x="481" y="-46" type="curve" smooth="yes"/>
      <point x="257" y="-46" type="line"/>
      <point x="515" y="178" type="line"/>
      <point x="537" y="197"/>
      <point x="564" y="216"/>
      <point x="568" y="237" type="curve" smooth="yes"/>
    </contour>
  </outline>
</glyph>
<glyph name="infinity" format="1">
  <advance width="915"/>
  <unicode hex="221E"/>
  <outline>
    <contour>
      <point x="468" y="391" type="curve" name="hr00"/>
      <point x="426" y="452"/>
      <point x="383" y="493"/>
      <point x="298" y="493" type="curve" smooth="yes"/>
      <point x="134" y="493"/>
      <point x="65" y="386"/>
      <point x="40" y="271" type="curve" smooth="yes"/>
      <point x="16" y="156"/>
      <point x="100" y="49"/>
      <point x="224" y="49" type="curve" smooth="yes"/>
      <point x="319" y="49"/>
      <point x="369" y="90"/>
      <point x="437" y="151" type="curve"/>
      <point x="479" y="90"/>
      <point x="521" y="49"/>
      <point x="606" y="49" type="curve" smooth="yes"/>
      <point x="770" y="49"/>
      <point x="840" y="156"/>
      <point x="864" y="271" type="curve" smooth="yes"/>
      <point x="889" y="386"/>
      <point x="804" y="493"/>
      <point x="680" y="493" type="curve" smooth="yes"/>
      <point x="585" y="493"/>
      <point x="536" y="452"/>
    </contour>
    <contour>
      <point x="242" y="183" type="curve" smooth="yes"/>
      <point x="205" y="183"/>
      <point x="173" y="210"/>
      <point x="186" y="271" type="curve" smooth="yes"/>
      <point x="199" y="332"/>
      <point x="243" y="359"/>
      <point x="280" y="359" type="curve" smooth="yes"/>
      <point x="315" y="359"/>
      <point x="346" y="338"/>
      <point x="377" y="271" type="curve"/>
      <point x="318" y="204"/>
      <point x="277" y="183"/>
    </contour>
    <contour>
      <point x="624" y="183" type="curve" smooth="yes"/>
      <point x="589" y="183"/>
      <point x="558" y="204"/>
      <point x="527" y="271" type="curve"/>
      <point x="586" y="338"/>
      <point x="627" y="359"/>
      <point x="662" y="359" type="curve" smooth="yes"/>
      <point x="699" y="359"/>
      <point x="731" y="332"/>
      <point x="718" y="271" type="curve" smooth="yes"/>
      <point x="705" y="210"/>
      <point x="661" y="183"/>
    </contour>
  </outline>
</glyph>
<glyph name="notequal" format="1">
  <advance width="558"/>
  <unicode hex="2260"/>
  <outline>
    <contour>
      <point x="437" y="100" type="line"/>
      <point x="452" y="100"/>
      <point x="466" y="112"/>
      <point x="469" y="127" type="curve"/>
      <point x="490" y="228" type="line"/>
      <point x="493" y="243"/>
      <point x="484" y="255"/>
      <point x="469" y="255" type="curve"/>
      <point x="351" y="255" type="line"/>
      <point x="407" y="346" type="line"/>
      <point x="489" y="346" type="line"/>
      <point x="504" y="346"/>
      <point x="519" y="358"/>
      <point x="522" y="373" type="curve"/>
      <point x="543" y="474" type="line"/>
      <point x="546" y="489"/>
      <point x="537" y="501"/>
      <point x="522" y="501" type="curve"/>
      <point x="503" y="501" type="line"/>
      <point x="532" y="548" type="line"/>
      <point x="540" y="561"/>
      <point x="536" y="579"/>
      <point x="519" y="579" type="curve" name="hr01"/>
      <point x="388" y="579" type="line"/>
      <point x="363" y="579"/>
      <point x="346" y="563"/>
      <point x="337" y="549" type="curve"/>
      <point x="307" y="501" type="line" name="hr02"/>
      <point x="127" y="501" type="line"/>
      <point x="112" y="501"/>
      <point x="98" y="489"/>
      <point x="95" y="474" type="curve"/>
      <point x="73" y="373" type="line"/>
      <point x="70" y="358"/>
      <point x="79" y="346"/>
      <point x="94" y="346" type="curve"/>
      <point x="211" y="346" type="line"/>
      <point x="154" y="255" type="line"/>
      <point x="75" y="255" type="line"/>
      <point x="60" y="255"/>
      <point x="45" y="243"/>
      <point x="42" y="228" type="curve"/>
      <point x="20" y="127" type="line"/>
      <point x="17" y="112"/>
      <point x="27" y="100"/>
      <point x="42" y="100" type="curve" name="hr03"/>
      <point x="58" y="100" type="line"/>
      <point x="29" y="52" type="line"/>
      <point x="20" y="38"/>
      <point x="26" y="21"/>
      <point x="42" y="21" type="curve" name="hr04"/>
      <point x="175" y="21" type="line"/>
      <point x="202" y="21"/>
      <point x="217" y="38"/>
      <point x="225" y="51" type="curve"/>
      <point x="255" y="100" type="line" name="hr05"/>
    </contour>
  </outline>
</glyph>
<glyph name="Hungarumlaut" format="1">
  <advance width="545"/>
  <unicode hex="F6CF"/>
  <outline>
    <contour>
      <point x="34" y="771" type="line" name="hr00" smooth="yes"/>
      <point x="27" y="761"/>
      <point x="30" y="750"/>
      <point x="45" y="750" type="curve" smooth="yes"/>
      <point x="128" y="750" type="line" smooth="yes"/>
      <point x="141" y="750"/>
      <point x="155" y="755"/>
      <point x="165" y="764" type="curve" smooth="yes"/>
      <point x="294" y="878" type="line" smooth="yes"/>
      <point x="307" y="889"/>
      <point x="307" y="910"/>
      <point x="287" y="910" type="curve" smooth="yes"/>
      <point x="155" y="910" type="line" smooth="yes"/>
      <point x="134" y="910"/>
      <point x="123" y="904"/>
      <point x="114" y="891" type="curve" smooth="yes"/>
    </contour>
    <contour>
      <point x="275" y="771" type="line" smooth="yes"/>
      <point x="268" y="761"/>
      <point x="271" y="750"/>
      <point x="286" y="750" type="curve" smooth="yes"/>
      <point x="372" y="750" type="line" smooth="yes"/>
      <point x="385" y="750"/>
      <point x="396" y="755"/>
      <point x="406" y="764" type="curve" smooth="yes"/>
      <point x="535" y="878" type="line" smooth="yes"/>
      <point x="548" y="889"/>
      <point x="548" y="910"/>
      <point x="528" y="910" type="curve" smooth="yes"/>
      <point x="396" y="910" type="line" smooth="yes"/>
      <point x="375" y="910"/>
      <point x="364" y="904"/>
      <point x="355" y="891" type="curve" smooth="yes"/>
    </contour>
  </outline>
</glyph>
<glyph name="Breve" format="1">
  <advance width="372"/>
  <outline>
    <contour>
      <point x="181" y="745" type="curve" smooth="yes"/>
      <point x="314" y="745"/>
      <point x="357" y="826"/>
      <point x="371" y="891" type="curve" smooth="yes"/>
      <point x="373" y="901"/>
      <point x="368" y="910"/>
      <point x="356" y="910" type="curve" smooth="yes"/>
      <point x="272" y="910" type="line" smooth="yes"/>
      <point x="260" y="910"/>
      <point x="251" y="901"/>
      <point x="249" y="891" type="curve" smooth="yes"/>
      <point x="244" y="866"/>
      <point x="222" y="841"/>
      <point x="191" y="841" type="curve" name="hr01" smooth="yes"/>
      <point x="160" y="841"/>
      <point x="150" y="866"/>
      <point x="155" y="891" type="curve" smooth="yes"/>
      <point x="157" y="901"/>
      <point x="152" y="910"/>
      <point x="140" y="910" type="curve" name="hr02" smooth="yes"/>
      <point x="56" y="910" type="line" smooth="yes"/>
      <point x="44" y="910"/>
      <point x="35" y="901"/>
      <point x="33" y="891" type="curve" smooth="yes"/>
      <point x="19" y="826"/>
      <point x="68" y="745"/>
    </contour>
  </outline>
</glyph>
<glyph name="Cedilla" format="1">
  <advance width="254"/>
  <outline>
    <contour>
      <point x="116" y="27" type="line"/>
      <point x="61" y="-52" type="line" smooth="yes"/>
      <point x="51" y="-67"/>
      <point x="55" y="-75"/>
      <point x="60" y="-85" type="curve"/>
      <point x="74" y="-106" type="line" smooth="yes"/>
      <point x="84" y="-119"/>
      <point x="110" y="-105"/>
      <point x="128" y="-105" type="curve" smooth="yes"/>
      <point x="148" y="-105"/>
      <point x="159" y="-113"/>
      <point x="155" y="-132" type="curve" smooth="yes"/>
      <point x="151" y="-152"/>
      <point x="136" y="-159"/>
      <point x="117" y="-159" type="curve" smooth="yes"/>
      <point x="82" y="-159"/>
      <point x="85" y="-133"/>
      <point x="59" y="-153" type="curve" smooth="yes"/>
      <point x="38" y="-169" type="line" smooth="yes"/>
      <point x="10" y="-189"/>
      <point x="71" y="-220"/>
      <point x="114" y="-220" type="curve" smooth="yes"/>
      <point x="184" y="-220"/>
      <point x="211" y="-183"/>
      <point x="221" y="-135" type="curve" smooth="yes"/>
      <point x="232" y="-87"/>
      <point x="205" y="-44"/>
      <point x="164" y="-44" type="curve" smooth="yes"/>
      <point x="149" y="-44"/>
      <point x="134" y="-49"/>
      <point x="125" y="-54" type="curve"/>
      <point x="181" y="27" type="line" name="hr01"/>
    </contour>
  </outline>
</glyph>
<glyph name="Ogonek" format="1">
  <advance width="269"/>
  <outline>
    <contour>
      <point x="181" y="-220" type="line" name="hr00" smooth="yes"/>
      <point x="194" y="-220"/>
      <point x="205" y="-211"/>
      <point x="207" y="-198" type="curve"/>
      <point x="221" y="-134" type="line" smooth="yes"/>
      <point x="224" y="-121"/>
      <point x="217" y="-112"/>
      <point x="204" y="-112" type="curve" smooth="yes"/>
      <point x="189" y="-112" type="line" smooth="yes"/>
      <point x="155" y="-112"/>
      <point x="140" y="-87"/>
      <point x="147" y="-56" type="curve" smooth="yes"/>
      <point x="153" y="-25"/>
      <point x="179" y="0"/>
      <point x="213" y="0" type="curve" smooth="yes"/>
      <point x="228" y="0" type="line" smooth="yes"/>
      <point x="241" y="0"/>
      <point x="251" y="9"/>
      <point x="254" y="22" type="curve" smooth="yes"/>
      <point x="268" y="86" type="line" smooth="yes"/>
      <point x="271" y="99"/>
      <point x="263" y="108"/>
      <point x="250" y="108" type="curve" smooth="yes"/>
      <point x="231" y="108" type="line" smooth="yes"/>
      <point x="110" y="108"/>
      <point x="56" y="44"/>
      <point x="36" y="-51" type="curve" smooth="yes"/>
      <point x="15" y="-146"/>
      <point x="81" y="-220"/>
      <point x="162" y="-220" type="curve" smooth="yes"/>
    </contour>
  </outline>
</glyph>
<glyph name="braceleft.cap" format="1">
  <advance width="481"/>
  <outline>
    <contour>
      <point x="357" y="-91" type="curve" name="hr00"/>
      <point x="379" y="10" type="line" smooth="yes"/>
      <point x="382" y="25"/>
      <point x="372" y="37"/>
      <point x="357" y="37" type="curve"/>
      <point x="306" y="44"/>
      <point x="250" y="72"/>
      <point x="271" y="172" type="curve" smooth="yes"/>
      <point x="294" y="279"/>
      <point x="253" y="317"/>
      <point x="222" y="341" type="curve"/>
      <point x="263" y="365"/>
      <point x="324" y="421"/>
      <point x="347" y="528" type="curve" smooth="yes"/>
      <point x="368" y="628"/>
      <point x="416" y="656"/>
      <point x="490" y="663" type="curve"/>
      <point x="505" y="663"/>
      <point x="520" y="675"/>
      <point x="523" y="690" type="curve" smooth="yes"/>
      <point x="545" y="791" type="line" smooth="yes"/>
      <point x="548" y="806"/>
      <point x="538" y="818"/>
      <point x="523" y="818" type="curve" smooth="yes"/>
      <point x="299" y="818"/>
      <point x="203" y="699"/>
      <point x="169" y="539" type="curve" smooth="yes"/>
      <point x="160" y="496"/>
      <point x="135" y="444"/>
      <point x="93" y="428" type="curve" smooth="yes"/>
      <point x="74" y="421" type="line" smooth="yes"/>
      <point x="52" y="412"/>
      <point x="41" y="400"/>
      <point x="37" y="384" type="curve" smooth="yes"/>
      <point x="23" y="316" type="line" smooth="yes"/>
      <point x="19" y="300"/>
      <point x="26" y="288"/>
      <point x="44" y="279" type="curve" smooth="yes"/>
      <point x="59" y="272" type="line" smooth="yes"/>
      <point x="95" y="256"/>
      <point x="98" y="204"/>
      <point x="89" y="161" type="curve" smooth="yes"/>
      <point x="55" y="1"/>
      <point x="200" y="-118"/>
      <point x="324" y="-118" type="curve" smooth="yes"/>
      <point x="339" y="-118"/>
      <point x="354" y="-106"/>
    </contour>
  </outline>
</glyph>
<glyph name="braceright.cap" format="1">
  <advance width="480"/>
  <outline>
    <contour>
      <point x="-42" y="-91" type="line" name="hr00"/>
      <point x="-45" y="-106"/>
      <point x="-36" y="-118"/>
      <point x="-21" y="-118" type="curve" smooth="yes"/>
      <point x="223" y="-118"/>
      <point x="300" y="1"/>
      <point x="334" y="161" type="curve" smooth="yes"/>
      <point x="343" y="204"/>
      <point x="368" y="256"/>
      <point x="410" y="272" type="curve" smooth="yes"/>
      <point x="429" y="279" type="line" smooth="yes"/>
      <point x="451" y="288"/>
      <point x="462" y="300"/>
      <point x="466" y="316" type="curve" smooth="yes"/>
      <point x="480" y="384" type="line" smooth="yes"/>
      <point x="484" y="400"/>
      <point x="477" y="412"/>
      <point x="459" y="421" type="curve" smooth="yes"/>
      <point x="444" y="428" type="line" smooth="yes"/>
      <point x="408" y="444"/>
      <point x="405" y="496"/>
      <point x="414" y="539" type="curve" smooth="yes"/>
      <point x="448" y="699"/>
      <point x="312" y="818"/>
      <point x="178" y="818" type="curve" smooth="yes"/>
      <point x="163" y="818"/>
      <point x="149" y="806"/>
      <point x="146" y="791" type="curve" smooth="yes"/>
      <point x="124" y="690" type="line" smooth="yes"/>
      <point x="121" y="675"/>
      <point x="130" y="663"/>
      <point x="145" y="663" type="curve"/>
      <point x="207" y="656"/>
      <point x="253" y="628"/>
      <point x="232" y="528" type="curve" smooth="yes"/>
      <point x="209" y="421"/>
      <point x="250" y="384"/>
      <point x="281" y="360" type="curve"/>
      <point x="240" y="336"/>
      <point x="179" y="279"/>
      <point x="156" y="172" type="curve" smooth="yes"/>
      <point x="135" y="72"/>
      <point x="97" y="44"/>
      <point x="12" y="37" type="curve"/>
      <point x="-3" y="37"/>
      <point x="-17" y="25"/>
      <point x="-20" y="10" type="curve" smooth="yes"/>
    </contour>
  </outline>
</glyph>
<glyph name="bracketright.cap" format="1">
  <advance width="410"/>
  <outline>
    <contour>
      <point x="229" y="-117" type="line" name="hr00"/>
      <point x="244" y="-117"/>
      <point x="258" y="-105"/>
      <point x="261" y="-90" type="curve" smooth="yes"/>
      <point x="449" y="791" type="line" smooth="yes"/>
      <point x="452" y="806"/>
      <point x="442" y="818"/>
      <point x="427" y="818" type="curve" smooth="yes"/>
      <point x="179" y="818" type="line" smooth="yes"/>
      <point x="164" y="818"/>
      <point x="150" y="806"/>
      <point x="147" y="791" type="curve" smooth="yes"/>
      <point x="125" y="690" type="line" smooth="yes"/>
      <point x="122" y="675"/>
      <point x="131" y="663"/>
      <point x="146" y="663" type="curve" smooth="yes"/>
      <point x="241" y="663" type="line"/>
      <point x="109" y="38" type="line"/>
      <point x="14" y="38" type="line" smooth="yes"/>
      <point x="-1" y="38"/>
      <point x="-16" y="26"/>
      <point x="-19" y="11" type="curve" smooth="yes"/>
      <point x="-41" y="-90" type="line" smooth="yes"/>
      <point x="-44" y="-105"/>
      <point x="-34" y="-117"/>
      <point x="-19" y="-117" type="curve" smooth="yes"/>
    </contour>
  </outline>
</glyph>
<glyph name="commaaccent.cap" format="1">
  <advance width="277"/>
  <outline>
    <contour>
      <point x="32" y="-226" type="line" name="hr00" smooth="yes"/>
      <point x="27" y="-238"/>
      <point x="33" y="-250"/>
      <point x="49" y="-250" type="curve" smooth="yes"/>
      <point x="138" y="-250" type="line" smooth="yes"/>
      <point x="164" y="-250"/>
      <point x="180" y="-231"/>
      <point x="188" y="-218" type="curve"/>
      <point x="273" y="-79" type="line"/>
      <point x="280" y="-67"/>
      <point x="275" y="-50"/>
      <point x="258" y="-50" type="curve" smooth="yes"/>
      <point x="135" y="-50" type="line" smooth="yes"/>
      <point x="108" y="-50"/>
      <point x="90" y="-71"/>
      <point x="84" y="-89" type="curve" smooth="yes"/>
    </contour>
  </outline>
</glyph>
<glyph name="parenright.cap" format="1">
  <advance width="430"/>
  <outline>
    <contour>
      <point x="390" y="330" type="curve" name="hr00" smooth="yes"/>
      <point x="458" y="650"/>
      <point x="350" y="818"/>
      <point x="178" y="818" type="curve" smooth="yes"/>
      <point x="163" y="818"/>
      <point x="149" y="806"/>
      <point x="146" y="791" type="curve" smooth="yes"/>
      <point x="124" y="690" type="line" smooth="yes"/>
      <point x="121" y="675"/>
      <point x="131" y="664"/>
      <point x="145" y="663" type="curve" smooth="yes"/>
      <point x="251" y="653"/>
      <point x="251" y="524"/>
      <point x="214" y="350" type="curve" smooth="yes"/>
      <point x="177" y="176"/>
      <point x="123" y="48"/>
      <point x="13" y="38" type="curve" smooth="yes"/>
      <point x="-3" y="37"/>
      <point x="-17" y="26"/>
      <point x="-20" y="11" type="curve" smooth="yes"/>
      <point x="-42" y="-90" type="line" smooth="yes"/>
      <point x="-45" y="-105"/>
      <point x="-35" y="-117"/>
      <point x="-20" y="-117" type="curve" smooth="yes"/>
      <point x="212" y="-117"/>
      <point x="322" y="10"/>
    </contour>
  </outline>
</glyph>
<glyph name="parenright.otlf" format="1">
  <advance width="660"/>
  <outline>
    <contour>
      <point x="505" y="330" type="curve" name="hr00" smooth="yes"/>
      <point x="573" y="650"/>
      <point x="465" y="818"/>
      <point x="293" y="818" type="curve" smooth="yes"/>
      <point x="278" y="818"/>
      <point x="264" y="806"/>
      <point x="261" y="791" type="curve" smooth="yes"/>
      <point x="239" y="690" type="line" smooth="yes"/>
      <point x="236" y="675"/>
      <point x="246" y="664"/>
      <point x="260" y="663" type="curve" smooth="yes"/>
      <point x="366" y="653"/>
      <point x="366" y="524"/>
      <point x="329" y="350" type="curve" smooth="yes"/>
      <point x="292" y="176"/>
      <point x="238" y="48"/>
      <point x="128" y="38" type="curve" smooth="yes"/>
      <point x="112" y="37"/>
      <point x="98" y="26"/>
      <point x="95" y="11" type="curve" smooth="yes"/>
      <point x="73" y="-90" type="line" smooth="yes"/>
      <point x="70" y="-105"/>
      <point x="80" y="-117"/>
      <point x="95" y="-117" type="curve" smooth="yes"/>
      <point x="327" y="-117"/>
      <point x="437" y="10"/>
    </contour>
  </outline>
</glyph>
<glyph name="three.otlf" format="1">
  <advance width="660"/>
  <outline>
    <contour>
      <point x="167" y="700" type="line" smooth="yes"/>
      <point x="152" y="700"/>
      <point x="138" y="688"/>
      <point x="135" y="673" type="curve" smooth="yes"/>
      <point x="112" y="567" type="line" smooth="yes"/>
      <point x="109" y="552"/>
      <point x="118" y="540"/>
      <point x="133" y="540" type="curve" smooth="yes"/>
      <point x="390" y="540" type="line"/>
      <point x="262" y="433" type="line" smooth="yes"/>
      <point x="251" y="424"/>
      <point x="236" y="412"/>
      <point x="233" y="397" type="curve" smooth="yes"/>
      <point x="215" y="311" type="line"/>
      <point x="211" y="296"/>
      <point x="221" y="284"/>
      <point x="236" y="284" type="curve" smooth="yes"/>
      <point x="323" y="284" type="line" smooth="yes"/>
      <point x="387" y="284"/>
      <point x="429" y="263"/>
      <point x="420" y="217" type="curve" smooth="yes"/>
      <point x="410" y="171"/>
      <point x="358" y="150"/>
      <point x="294" y="150" type="curve" smooth="yes"/>
      <point x="187" y="150"/>
      <point x="209" y="210"/>
      <point x="154" y="210" type="curve" name="hr01" smooth="yes"/>
      <point x="28" y="210" type="line" smooth="yes"/>
      <point x="16" y="210"/>
      <point x="4" y="200"/>
      <point x="1" y="188" type="curve"/>
      <point x="-17" y="89"/>
      <point x="99" y="-10"/>
      <point x="270" y="-10" type="curve" smooth="yes"/>
      <point x="476" y="-10"/>
      <point x="571" y="57"/>
      <point x="603" y="207" type="curve" smooth="yes"/>
      <point x="625" y="311"/>
      <point x="566" y="380"/>
      <point x="470" y="410" type="curve"/>
      <point x="617" y="532" type="line" smooth="yes"/>
      <point x="626" y="540"/>
      <point x="641" y="552"/>
      <point x="644" y="567" type="curve" smooth="yes"/>
      <point x="667" y="673" type="line" smooth="yes"/>
      <point x="670" y="688"/>
      <point x="660" y="700"/>
      <point x="645" y="700" type="curve" smooth="yes"/>
    </contour>
  </outline>
</glyph>
<glyph name="two.otlf" format="1">
  <advance width="660"/>
  <outline>
    <contour>
      <point x="636" y="465" type="curve" name="hr00" smooth="yes"/>
      <point x="662" y="587"/>
      <point x="574" y="710"/>
      <point x="407" y="710" type="curve" smooth="yes"/>
      <point x="200" y="710"/>
      <point x="117" y="586"/>
      <point x="90" y="475" type="curve"/>
      <point x="88" y="463"/>
      <point x="96" y="453"/>
      <point x="108" y="453" type="curve" smooth="yes"/>
      <point x="231" y="453" type="line" smooth="yes"/>
      <point x="249" y="453"/>
      <point x="265" y="457"/>
      <point x="276" y="476" type="curve" smooth="yes"/>
      <point x="285" y="492"/>
      <point x="309" y="550"/>
      <point x="384" y="550" type="curve" smooth="yes"/>
      <point x="459" y="550"/>
      <point x="457" y="494"/>
      <point x="452" y="475" type="curve"/>
      <point x="447" y="448"/>
      <point x="439" y="418"/>
      <point x="385" y="383" type="curve"/>
      <point x="46" y="172" type="line" smooth="yes"/>
      <point x="22" y="157"/>
      <point x="9" y="134"/>
      <point x="5" y="113" type="curve" smooth="yes"/>
      <point x="-14" y="27" type="line" smooth="yes"/>
      <point x="-17" y="12"/>
      <point x="-7" y="0"/>
      <point x="8" y="0" type="curve" smooth="yes"/>
      <point x="526" y="0" type="line" smooth="yes"/>
      <point x="541" y="0"/>
      <point x="555" y="12"/>
      <point x="558" y="27" type="curve" smooth="yes"/>
      <point x="581" y="133" type="line" smooth="yes"/>
      <point x="584" y="148"/>
      <point x="575" y="160"/>
      <point x="560" y="160" type="curve" smooth="yes"/>
      <point x="329" y="160" type="line"/>
      <point x="486" y="252" type="line" smooth="yes"/>
      <point x="592" y="320"/>
      <point x="620" y="387"/>
    </contour>
  </outline>
</glyph>
